<?xml version="1.0" encoding="UTF-8"?>
<!DOCTYPE svg PUBLIC "-//W3C//DTD SVG 1.1//EN" "http://www.w3.org/Graphics/SVG/1.1/DTD/svg11.dtd">
<!-- Creator: CorelDRAW -->
<svg xmlns="http://www.w3.org/2000/svg" xml:space="preserve" width="48.182mm" height="48.182mm" version="1.1" style="shape-rendering:geometricPrecision; text-rendering:geometricPrecision; image-rendering:optimizeQuality; fill-rule:evenodd; clip-rule:evenodd"
viewBox="0 0 4818.2 4818.2"
 xmlns:xlink="http://www.w3.org/1999/xlink"
 xmlns:xodm="http://www.corel.com/coreldraw/odm/2003">
 <defs>
  <style type="text/css">
   <![CDATA[
    .fil0 {fill:#0A0438}
    .fil118 {fill:#0A0439}
    .fil117 {fill:#0A0539}
    .fil116 {fill:#0B053A}
    .fil115 {fill:#0B053B}
    .fil114 {fill:#0B063B}
    .fil113 {fill:#0B063C}
    .fil112 {fill:#0C063D}
    .fil111 {fill:#0C073D}
    .fil110 {fill:#0C073E}
    .fil109 {fill:#0C073F}
    .fil108 {fill:#0D073F}
    .fil107 {fill:#0D0840}
    .fil106 {fill:#0D0841}
    .fil105 {fill:#0D0941}
    .fil104 {fill:#0D0942}
    .fil103 {fill:#0E0942}
    .fil102 {fill:#0E0943}
    .fil101 {fill:#0E0A44}
    .fil100 {fill:#0F0A45}
    .fil99 {fill:#0F0B46}
    .fil98 {fill:#0F0B47}
    .fil97 {fill:#100C48}
    .fil96 {fill:#100C49}
    .fil95 {fill:#100D4A}
    .fil94 {fill:#110D4B}
    .fil93 {fill:#110D4C}
    .fil92 {fill:#110E4C}
    .fil91 {fill:#110E4D}
    .fil90 {fill:#120E4E}
    .fil89 {fill:#120F4E}
    .fil88 {fill:#120F4F}
    .fil87 {fill:#120F50}
    .fil86 {fill:#131050}
    .fil85 {fill:#131051}
    .fil84 {fill:#131052}
    .fil83 {fill:#131152}
    .fil82 {fill:#141153}
    .fil81 {fill:#141154}
    .fil80 {fill:#141254}
    .fil79 {fill:#141255}
    .fil78 {fill:#151256}
    .fil77 {fill:#151356}
    .fil76 {fill:#151357}
    .fil75 {fill:#151358}
    .fil74 {fill:#161458}
    .fil73 {fill:#161459}
    .fil72 {fill:#16145A}
    .fil71 {fill:#16155A}
    .fil70 {fill:#16155B}
    .fil69 {fill:#17155C}
    .fil68 {fill:#17165D}
    .fil67 {fill:#17165E}
    .fil66 {fill:#18165E}
    .fil65 {fill:#18175F}
    .fil64 {fill:#181760}
    .fil63 {fill:#181861}
    .fil62 {fill:#191861}
    .fil61 {fill:#191862}
    .fil60 {fill:#191863}
    .fil59 {fill:#191963}
    .fil58 {fill:#191964}
    .fil57 {fill:#1A1964}
    .fil56 {fill:#1A1965}
    .fil55 {fill:#1A1A65}
    .fil54 {fill:#1A1A66}
    .fil53 {fill:#1B1A67}
    .fil52 {fill:#1B1B67}
    .fil51 {fill:#1B1B68}
    .fil50 {fill:#1B1B69}
    .fil49 {fill:#1B1C69}
    .fil48 {fill:#1C1C6A}
    .fil47 {fill:#1C1C6B}
    .fil46 {fill:#1C1D6B}
    .fil45 {fill:#1C1D6C}
    .fil44 {fill:#1D1D6C}
    .fil43 {fill:#1D1D6D}
    .fil42 {fill:#1D1E6D}
    .fil41 {fill:#1D1E6E}
    .fil40 {fill:#1D1E6F}
    .fil39 {fill:#1E1F6F}
    .fil38 {fill:#1E1F70}
    .fil37 {fill:#1E1F71}
    .fil36 {fill:#1E2071}
    .fil35 {fill:#1E2072}
    .fil34 {fill:#1F2072}
    .fil33 {fill:#1F2073}
    .fil32 {fill:#1F2173}
    .fil31 {fill:#1F2174}
    .fil30 {fill:#1F2175}
    .fil29 {fill:#202175}
    .fil28 {fill:#202275}
    .fil27 {fill:#202276}
    .fil26 {fill:#202277}
    .fil25 {fill:#212378}
    .fil24 {fill:#212379}
    .fil23 {fill:#21247A}
    .fil22 {fill:#22247A}
    .fil21 {fill:#22247B}
    .fil20 {fill:#22257C}
    .fil19 {fill:#22257D}
    .fil18 {fill:#23257D}
    .fil17 {fill:#23257E}
    .fil16 {fill:#23267E}
    .fil15 {fill:#23267F}
    .fil14 {fill:#232680}
    .fil13 {fill:#232780}
    .fil12 {fill:#242780}
    .fil11 {fill:#242781}
    .fil10 {fill:#242782}
    .fil9 {fill:#242882}
    .fil8 {fill:#242883}
    .fil7 {fill:#252883}
    .fil6 {fill:#252884}
    .fil5 {fill:#252984}
    .fil4 {fill:#252985}
    .fil3 {fill:#262986}
    .fil2 {fill:#262A86}
    .fil1 {fill:#262A87}
    .fil119 {fill:#D3DCE9;fill-rule:nonzero}
    .fil120 {fill:url(#id1)}
   ]]>
  </style>
     <clipPath id="id0">
      <path d="M3840.74 0.53l-2877.54 0c-533.69,0 -970.33,436.64 -970.33,970.33l0 2877.54c0,533.69 436.64,970.33 970.33,970.33l2877.54 0c533.69,0 970.33,-436.64 970.33,-970.33l0 -2877.54c0,-533.69 -436.64,-970.33 -970.33,-970.33z"/>
     </clipPath>
  <linearGradient id="id1" gradientUnits="userSpaceOnUse" x1="2849.76" y1="999.54" x2="3125.65" y2="2245.5">
   <stop offset="0" style="stop-opacity:1; stop-color:#A10609"/>
   <stop offset="1" style="stop-opacity:1; stop-color:#EB1A21"/>
  </linearGradient>
 </defs>
 <g id="Camada_x0020_1">
  <metadata id="CorelCorpID_0Corel-Layer"/>
  <g id="_2012927277360">
   <g>
    <g style="clip-path:url(#id0)">
     <polygon class="fil0" points="6080.29,1506.57 3443.74,7479.89 -1276.35,3312.69 1360.2,-2660.63 "/>
     <polygon id="_1" class="fil1" points="2423.2,2402.08 2406.49,2439.92 2380.74,2417.18 2397.45,2379.34 "/>
     <path id="_2" class="fil1" d="M2416.12 2404.59l-17.17 -15.15 -11.13 25.23 17.17 15.15 11.13 -25.23zm21.23 -7.55l-27.84 63.07 -42.92 -37.89 27.84 -63.07 42.92 37.89z"/>
     <path id="_3" class="fil2" d="M2430.27 2399.56l-34.33 -30.31 -22.27 50.45 34.33 30.31 22.27 -50.45zm21.23 -7.55l-38.97 88.29 -60.09 -53.05 38.97 -88.29 60.09 53.05z"/>
     <path id="_4" class="fil2" d="M2444.42 2394.52l-51.5 -45.46 -33.4 75.68 51.5 45.46 33.4 -75.68zm21.23 -7.55l-50.11 113.52 -77.25 -68.2 50.11 -113.52 77.25 68.2z"/>
     <path id="_5" class="fil3" d="M2458.57 2389.49l-68.66 -60.62 -44.54 100.9 68.66 60.62 44.54 -100.9zm21.23 -7.55l-61.24 138.74 -94.42 -83.36 61.24 -138.74 94.42 83.36z"/>
     <path id="_6" class="fil3" d="M2472.72 2384.45l-85.83 -75.77 -55.67 126.13 85.83 75.77 55.67 -126.13zm21.23 -7.55l-72.38 163.97 -111.58 -98.51 72.38 -163.97 111.58 98.51z"/>
     <path id="_7" class="fil4" d="M2486.87 2379.42l-103 -90.94 -66.8 151.36 103 90.94 66.8 -151.36zm21.23 -7.55l-83.51 189.19 -128.75 -113.67 83.51 -189.19 128.75 113.67z"/>
     <path id="_8" class="fil4" d="M2501.02 2374.38l-120.16 -106.09 -77.94 176.59 120.16 106.09 77.94 -176.59zm21.23 -7.55l-94.64 214.42 -145.92 -128.82 94.64 -214.42 145.92 128.82z"/>
     <path id="_9" class="fil4" d="M2515.17 2369.35l-137.33 -121.25 -89.07 201.81 137.33 121.25 89.07 -201.81zm21.23 -7.55l-105.78 239.64 -163.08 -143.98 105.78 -239.64 163.08 143.98z"/>
     <path id="_10" class="fil4" d="M2529.32 2364.31l-154.49 -136.4 -100.21 227.04 154.49 136.4 100.21 -227.04zm21.23 -7.55l-116.91 264.87 -180.25 -159.13 116.91 -264.87 180.25 159.13z"/>
     <path id="_11" class="fil5" d="M2543.47 2359.28l-171.66 -151.56 -111.34 252.26 171.66 151.56 111.34 -252.26zm21.23 -7.55l-128.05 290.1 -197.41 -174.3 128.05 -290.1 197.41 174.3z"/>
     <path id="_12" class="fil5" d="M2557.63 2354.24l-188.84 -166.71 -122.48 277.49 188.84 166.71 122.48 -277.49zm21.22 -7.55l-139.18 315.33 -214.58 -189.45 139.18 -315.33 214.58 189.45z"/>
     <path id="_13" class="fil6" d="M2571.78 2349.21l-206 -181.87 -133.62 302.71 206 181.87 133.62 -302.71zm21.22 -7.56l-150.31 340.56 -231.75 -204.6 150.31 -340.56 231.75 204.6z"/>
     <path id="_14" class="fil6" d="M2585.93 2344.17l-223.17 -197.02 -144.75 327.94 223.17 197.02 144.75 -327.94zm21.22 -7.55l-161.45 365.78 -248.91 -219.76 161.45 -365.78 248.91 219.76z"/>
     <path id="_15" class="fil7" d="M2600.08 2339.14l-240.33 -212.18 -155.89 353.16 240.33 212.18 155.89 -353.16zm21.22 -7.56l-172.58 391.01 -266.08 -234.91 172.58 -391.01 266.08 234.91z"/>
     <path id="_16" class="fil7" d="M2614.23 2334.1l-257.5 -227.33 -167.02 378.39 257.5 227.33 167.02 -378.39zm21.22 -7.55l-183.72 416.23 -283.24 -250.07 183.72 -416.23 283.24 250.07z"/>
     <path id="_17" class="fil7" d="M2628.38 2329.07l-274.67 -242.49 -178.15 403.61 274.67 242.49 178.15 -403.61zm21.22 -7.56l-194.85 441.46 -300.41 -265.22 194.85 -441.46 300.41 265.22z"/>
     <path id="_18" class="fil8" d="M2642.53 2324.03l-291.83 -257.64 -189.29 428.84 291.83 257.64 189.29 -428.84zm21.22 -7.55l-205.98 466.68 -317.58 -280.38 205.98 -466.68 317.58 280.38z"/>
     <path id="_19" class="fil9" d="M2656.68 2319l-309 -272.81 -200.42 454.07 309 272.81 200.42 -454.07zm21.22 -7.56l-217.12 491.91 -334.74 -295.53 217.12 -491.91 334.74 295.53z"/>
     <path id="_20" class="fil9" d="M2670.83 2313.96l-326.16 -287.96 -211.56 479.3 326.16 287.96 211.56 -479.3zm21.22 -7.55l-228.25 517.13 -351.91 -310.69 228.25 -517.13 351.91 310.69z"/>
     <path id="_21" class="fil10" d="M2684.98 2308.93l-343.33 -303.12 -222.69 504.52 343.33 303.12 222.69 -504.52zm21.23 -7.56l-239.4 542.36 -369.08 -325.84 239.4 -542.36 369.08 325.84z"/>
     <path id="_22" class="fil11" d="M2699.13 2303.89l-360.5 -318.27 -233.82 529.75 360.5 318.27 233.82 -529.75zm21.23 -7.55l-250.53 567.58 -386.25 -341 250.53 -567.58 386.25 341z"/>
     <path id="_23" class="fil11" d="M2713.28 2298.86l-377.66 -333.43 -244.96 554.97 377.66 333.43 244.96 -554.97zm21.23 -7.56l-261.66 592.82 -403.42 -356.16 261.66 -592.82 403.42 356.16z"/>
     <path id="_24" class="fil11" d="M2727.43 2293.82l-394.83 -348.58 -256.09 580.2 394.83 348.58 256.09 -580.2zm21.23 -7.55l-272.8 618.04 -420.58 -371.32 272.8 -618.04 420.58 371.32z"/>
     <path id="_25" class="fil11" d="M2741.58 2288.79l-411.99 -363.74 -267.23 605.42 411.99 363.74 267.23 -605.42zm21.23 -7.56l-283.93 643.27 -437.75 -386.47 283.93 -643.27 437.75 386.47z"/>
     <path id="_26" class="fil12" d="M2755.73 2283.75l-429.16 -378.89 -278.36 630.65 429.16 378.89 278.36 -630.65zm21.23 -7.55l-295.07 668.49 -454.91 -401.63 295.07 -668.49 454.91 401.63z"/>
     <path id="_27" class="fil12" d="M2769.88 2278.71l-446.33 -394.04 -289.49 655.88 446.33 394.04 289.49 -655.88zm21.23 -7.55l-306.2 693.72 -472.08 -416.78 306.2 -693.72 472.08 416.78z"/>
     <path id="_28" class="fil13" d="M2784.03 2273.68l-463.49 -409.2 -300.63 681.1 463.49 409.2 300.63 -681.1zm21.23 -7.55l-317.33 718.94 -489.25 -431.94 317.33 -718.94 489.25 431.94z"/>
     <path id="_29" class="fil14" d="M2798.18 2268.64l-480.66 -424.35 -311.76 706.33 480.66 424.35 311.76 -706.33zm21.23 -7.55l-328.47 744.17 -506.41 -447.09 328.47 -744.17 506.41 447.09z"/>
     <path id="_30" class="fil15" d="M2812.33 2263.61l-497.82 -439.52 -322.9 731.56 497.82 439.52 322.9 -731.56zm21.23 -7.55l-339.6 769.39 -523.58 -462.25 339.6 -769.39 523.58 462.25z"/>
     <path id="_31" class="fil15" d="M2826.48 2258.57l-514.99 -454.67 -334.03 756.79 514.99 454.67 334.03 -756.79zm21.23 -7.55l-350.74 794.62 -540.74 -477.4 350.74 -794.62 540.74 477.4z"/>
     <path id="_32" class="fil15" d="M2840.63 2253.54l-532.16 -469.83 -345.16 782.01 532.16 469.83 345.16 -782.01zm21.23 -7.55l-361.87 819.84 -557.91 -492.56 361.87 -819.84 557.91 492.56z"/>
     <path id="_33" class="fil15" d="M2854.79 2248.5l-549.33 -484.98 -356.31 807.24 549.33 484.98 356.31 -807.24zm21.22 -7.55l-373 845.07 -575.08 -507.71 373 -845.07 575.08 507.71z"/>
     <path id="_34" class="fil16" d="M2868.94 2243.47l-566.5 -500.14 -367.44 832.46 566.5 500.14 367.44 -832.46zm21.22 -7.55l-384.14 870.3 -592.24 -522.88 384.14 -870.3 592.24 522.88z"/>
     <path id="_35" class="fil16" d="M2883.09 2238.43l-583.66 -515.29 -378.58 857.69 583.66 515.29 378.58 -857.69zm21.22 -7.55l-395.27 895.53 -609.41 -538.03 395.27 -895.53 609.41 538.03z"/>
     <path id="_36" class="fil16" d="M2897.24 2233.4l-600.83 -530.45 -389.71 882.91 600.83 530.45 389.71 -882.91zm21.22 -7.55l-406.41 920.75 -626.57 -553.19 406.41 -920.75 626.57 553.19z"/>
     <path id="_37" class="fil17" d="M2911.39 2228.36l-618 -545.6 -400.84 908.14 618 545.6 400.84 -908.14zm21.22 -7.55l-417.54 945.98 -643.74 -568.34 417.54 -945.98 643.74 568.34z"/>
     <path id="_38" class="fil18" d="M2925.54 2223.33l-635.16 -560.76 -411.98 933.36 635.16 560.76 411.98 -933.36zm21.22 -7.56l-428.67 971.21 -660.91 -583.49 428.67 -971.21 660.91 583.49z"/>
     <path id="_39" class="fil19" d="M2939.69 2218.29l-652.33 -575.91 -423.11 958.59 652.33 575.91 423.11 -958.59zm21.22 -7.55l-439.81 996.43 -678.07 -598.65 439.81 -996.43 678.07 598.65z"/>
     <path id="_40" class="fil19" d="M2953.84 2213.26l-669.49 -591.07 -434.25 983.81 669.49 591.07 434.25 -983.81zm21.22 -7.56l-450.94 1021.66 -695.24 -613.8 450.94 -1021.66 695.24 613.8z"/>
     <path id="_41" class="fil20" d="M2967.99 2208.22l-686.66 -606.23 -445.38 1009.05 686.66 606.23 445.38 -1009.05zm21.22 -7.55l-462.08 1046.88 -712.4 -628.96 462.08 -1046.88 712.4 628.96z"/>
     <path id="_42" class="fil20" d="M2982.14 2203.19l-703.83 -621.39 -456.51 1034.27 703.83 621.39 456.51 -1034.27zm21.23 -7.56l-473.22 1072.11 -729.58 -644.11 473.22 -1072.11 729.58 644.11z"/>
     <path id="_43" class="fil20" d="M2996.29 2198.15l-720.99 -636.54 -467.65 1059.5 720.99 636.54 467.65 -1059.5zm21.23 -7.55l-484.35 1097.33 -746.75 -659.27 484.35 -1097.33 746.75 659.27z"/>
     <path id="_44" class="fil20" d="M3010.44 2193.12l-738.16 -651.7 -478.78 1084.72 738.16 651.7 478.78 -1084.72zm21.23 -7.56l-495.49 1122.56 -763.91 -674.42 495.49 -1122.56 763.91 674.42z"/>
     <path id="_45" class="fil21" d="M3024.59 2188.08l-755.32 -666.85 -489.92 1109.95 755.32 666.85 489.92 -1109.95zm21.23 -7.55l-506.62 1147.78 -781.08 -689.58 506.62 -1147.78 781.08 689.58z"/>
     <path id="_46" class="fil21" d="M3038.74 2183.05l-772.49 -682.01 -501.05 1135.17 772.49 682.01 501.05 -1135.17zm21.23 -7.56l-517.76 1173.02 -798.24 -704.74 517.76 -1173.02 798.24 704.74z"/>
     <path id="_47" class="fil21" d="M3052.89 2178.01l-789.66 -697.16 -512.18 1160.4 789.66 697.16 512.18 -1160.4zm21.23 -7.55l-528.89 1198.24 -815.41 -719.9 528.89 -1198.24 815.41 719.9z"/>
     <path id="_48" class="fil21" d="M3067.04 2172.98l-806.82 -712.32 -523.32 1185.62 806.82 712.32 523.32 -1185.62zm21.23 -7.56l-540.02 1223.47 -832.58 -735.05 540.02 -1223.47 832.58 735.05z"/>
     <path id="_49" class="fil22" d="M3081.19 2167.94l-823.99 -727.47 -534.45 1210.85 823.99 727.47 534.45 -1210.85zm21.23 -7.55l-551.16 1248.69 -849.74 -750.21 551.16 -1248.69 849.74 750.21z"/>
     <path id="_50" class="fil23" d="M3095.34 2162.91l-841.15 -742.63 -545.59 1236.07 841.15 742.63 545.59 -1236.07zm21.23 -7.56l-562.29 1273.92 -866.91 -765.36 562.29 -1273.92 866.91 765.36z"/>
     <path id="_51" class="fil23" d="M3109.49 2157.87l-858.32 -757.78 -556.72 1261.3 858.32 757.78 556.72 -1261.3zm21.23 -7.55l-573.42 1299.14 -884.08 -780.52 573.42 -1299.14 884.08 780.52z"/>
     <path id="_52" class="fil23" d="M3123.64 2152.83l-875.49 -772.93 -567.85 1286.53 875.49 772.93 567.85 -1286.53zm21.23 -7.55l-584.56 1324.37 -901.24 -795.67 584.56 -1324.37 901.24 795.67z"/>
     <path id="_53" class="fil24" d="M3137.79 2147.8l-892.65 -788.1 -578.99 1311.76 892.65 788.1 578.99 -1311.76zm21.23 -7.55l-595.69 1349.59 -918.41 -810.83 595.69 -1349.59 918.41 810.83z"/>
     <path id="_54" class="fil24" d="M3151.95 2142.76l-909.83 -803.25 -590.13 1336.99 909.83 803.25 590.13 -1336.99zm21.22 -7.55l-606.83 1374.82 -935.57 -825.98 606.83 -1374.82 935.57 825.98z"/>
     <path id="_55" class="fil24" d="M3166.1 2137.73l-927 -818.41 -601.26 1362.21 927 818.41 601.26 -1362.21zm21.22 -7.55l-617.96 1400.04 -952.74 -841.14 617.96 -1400.04 952.74 841.14z"/>
     <path id="_56" class="fil24" d="M3180.25 2132.69l-944.16 -833.56 -612.4 1387.44 944.16 833.56 612.4 -1387.44zm21.22 -7.55l-629.09 1425.27 -969.91 -856.29 629.09 -1425.27 969.91 856.29z"/>
     <path id="_57" class="fil25" d="M3194.4 2127.66l-961.33 -848.72 -623.53 1412.66 961.33 848.72 623.53 -1412.66zm21.22 -7.55l-640.23 1450.5 -987.07 -871.46 640.23 -1450.5 987.07 871.46z"/>
     <path id="_58" class="fil25" d="M3208.55 2122.62l-978.49 -863.87 -634.67 1437.89 978.49 863.87 634.67 -1437.89zm21.22 -7.55l-651.36 1475.73 -1004.24 -886.61 651.36 -1475.73 1004.24 886.61z"/>
     <path id="_59" class="fil25" d="M3222.7 2117.59l-995.66 -879.03 -645.8 1463.11 995.66 879.03 645.8 -1463.11zm21.22 -7.55l-662.5 1500.95 -1021.4 -901.77 662.5 -1500.95 1021.4 901.77z"/>
     <path id="_60" class="fil25" d="M3236.85 2112.55l-1012.83 -894.18 -656.93 1488.34 1012.83 894.18 656.93 -1488.34zm21.22 -7.55l-673.63 1526.18 -1038.57 -916.92 673.63 -1526.18 1038.57 916.92z"/>
     <path id="_61" class="fil26" d="M3251 2107.52l-1029.99 -909.34 -668.07 1513.56 1029.99 909.34 668.07 -1513.56zm21.22 -7.55l-684.76 1551.4 -1055.74 -932.08 684.76 -1551.4 1055.74 932.08z"/>
     <path id="_62" class="fil26" d="M3265.15 2102.48l-1047.16 -924.49 -679.2 1538.79 1047.16 924.49 679.2 -1538.79zm21.22 -7.55l-695.9 1576.63 -1072.9 -947.23 695.9 -1576.63 1072.9 947.23z"/>
     <path id="_63" class="fil26" d="M3279.3 2097.45l-1064.32 -939.65 -690.34 1564.01 1064.32 939.65 690.34 -1564.01zm21.23 -7.56l-707.04 1601.86 -1090.08 -962.38 707.04 -1601.86 1090.08 962.38z"/>
     <path id="_64" class="fil27" d="M3293.45 2092.41l-1081.49 -954.81 -701.47 1589.25 1081.49 954.81 701.47 -1589.25zm21.23 -7.55l-718.18 1627.08 -1107.24 -977.54 718.18 -1627.08 1107.24 977.54z"/>
     <path id="_65" class="fil27" d="M3307.6 2087.38l-1098.66 -969.97 -712.6 1614.47 1098.66 969.97 712.6 -1614.47zm21.23 -7.56l-729.31 1652.31 -1124.41 -992.69 729.31 -1652.31 1124.41 992.69z"/>
     <path id="_66" class="fil27" d="M3321.75 2082.34l-1115.82 -985.12 -723.74 1639.7 1115.82 985.12 723.74 -1639.7zm21.23 -7.55l-740.44 1677.53 -1141.58 -1007.85 740.44 -1677.53 1141.58 1007.85z"/>
     <path id="_67" class="fil27" d="M3335.9 2077.31l-1132.99 -1000.28 -734.87 1664.92 1132.99 1000.28 734.87 -1664.92zm21.23 -7.56l-751.58 1702.76 -1158.74 -1023 751.58 -1702.76 1158.74 1023z"/>
     <path id="_68" class="fil28" d="M3350.05 2072.27l-1150.15 -1015.43 -746.01 1690.15 1150.15 1015.43 746.01 -1690.15zm21.23 -7.55l-762.71 1727.98 -1175.91 -1038.16 762.71 -1727.98 1175.91 1038.16z"/>
     <path id="_69" class="fil29" d="M3364.2 2067.24l-1167.32 -1030.59 -757.14 1715.37 1167.32 1030.59 757.14 -1715.37zm21.23 -7.56l-773.85 1753.22 -1193.07 -1053.32 773.85 -1753.22 1193.07 1053.32z"/>
     <path id="_70" class="fil29" d="M3378.35 2062.2l-1184.49 -1045.74 -768.27 1740.6 1184.49 1045.74 768.27 -1740.6zm21.23 -7.55l-784.98 1778.44 -1210.24 -1068.48 784.98 -1778.44 1210.24 1068.48z"/>
     <path id="_71" class="fil30" d="M3392.5 2057.17l-1201.65 -1060.9 -779.41 1765.82 1201.65 1060.9 779.41 -1765.82zm21.23 -7.56l-796.11 1803.67 -1227.41 -1083.63 796.11 -1803.67 1227.41 1083.63z"/>
     <path id="_72" class="fil31" d="M3406.65 2052.13l-1218.82 -1076.05 -790.54 1791.05 1218.82 1076.05 790.54 -1791.05zm21.23 -7.55l-807.25 1828.89 -1244.57 -1098.79 807.25 -1828.89 1244.57 1098.79z"/>
     <path id="_73" class="fil31" d="M3420.8 2047.1l-1235.98 -1091.21 -801.68 1816.27 1235.98 1091.21 801.68 -1816.27zm21.23 -7.56l-818.38 1854.12 -1261.74 -1113.94 818.38 -1854.12 1261.74 1113.94z"/>
     <path id="_74" class="fil31" d="M3434.95 2042.06l-1253.15 -1106.36 -812.81 1841.5 1253.15 1106.36 812.81 -1841.5zm21.23 -7.55l-829.52 1879.34 -1278.9 -1129.1 829.52 -1879.34 1278.9 1129.1z"/>
     <path id="_75" class="fil31" d="M3449.11 2037.03l-1270.33 -1121.52 -823.95 1866.72 1270.33 1121.52 823.95 -1866.72zm21.22 -7.56l-840.65 1904.57 -1296.07 -1144.25 840.65 -1904.57 1296.07 1144.25z"/>
     <path id="_76" class="fil32" d="M3463.26 2031.99l-1287.49 -1136.68 -835.09 1891.96 1287.49 1136.68 835.09 -1891.96zm21.22 -7.55l-851.78 1929.79 -1313.24 -1159.41 851.78 -1929.79 1313.24 1159.41z"/>
     <path id="_77" class="fil33" d="M3477.41 2026.95l-1304.66 -1151.83 -846.22 1917.19 1304.66 1151.83 846.22 -1917.19zm21.22 -7.55l-862.92 1955.02 -1330.4 -1174.56 862.92 -1955.02 1330.4 1174.56z"/>
     <path id="_78" class="fil33" d="M3491.56 2021.92l-1321.82 -1166.99 -857.36 1942.41 1321.82 1166.99 857.36 -1942.41zm21.22 -7.55l-874.05 1980.24 -1347.57 -1189.72 874.05 -1980.24 1347.57 1189.72z"/>
     <path id="_79" class="fil33" d="M3505.71 2016.88l-1338.99 -1182.14 -868.49 1967.64 1338.99 1182.14 868.49 -1967.64zm21.22 -7.55l-885.19 2005.47 -1364.73 -1204.87 885.19 -2005.47 1364.73 1204.87z"/>
     <path id="_80" class="fil34" d="M3519.86 2011.85l-1356.16 -1197.3 -879.62 1992.86 1356.16 1197.3 879.62 -1992.86zm21.22 -7.55l-896.32 2030.7 -1381.9 -1220.04 896.32 -2030.7 1381.9 1220.04z"/>
     <path id="_81" class="fil34" d="M3534.01 2006.81l-1373.32 -1212.45 -890.76 2018.09 1373.32 1212.45 890.76 -2018.09zm21.22 -7.55l-907.45 2055.93 -1399.07 -1235.19 907.45 -2055.93 1399.07 1235.19z"/>
     <path id="_82" class="fil35" d="M3548.16 2001.78l-1390.49 -1227.61 -901.89 2043.31 1390.49 1227.61 901.89 -2043.31zm21.22 -7.55l-918.59 2081.15 -1416.23 -1250.35 918.59 -2081.15 1416.23 1250.35z"/>
     <path id="_83" class="fil36" d="M3562.31 1996.74l-1407.65 -1242.76 -913.03 2068.54 1407.65 1242.76 913.03 -2068.54zm21.22 -7.55l-929.72 2106.38 -1433.4 -1265.5 929.72 -2106.38 1433.4 1265.5z"/>
     <path id="_84" class="fil36" d="M3576.46 1991.71l-1424.82 -1257.92 -924.16 2093.76 1424.82 1257.92 924.16 -2093.76zm21.23 -7.55l-940.87 2131.6 -1450.57 -1280.66 940.87 -2131.6 1450.57 1280.66z"/>
     <path id="_85" class="fil37" d="M3590.61 1986.67l-1441.99 -1273.07 -935.29 2118.99 1441.99 1273.07 935.29 -2118.99zm21.23 -7.55l-952 2156.83 -1467.74 -1295.81 952 -2156.83 1467.74 1295.81z"/>
     <path id="_86" class="fil37" d="M3604.76 1981.64l-1459.15 -1288.23 -946.43 2144.21 1459.15 1288.23 946.43 -2144.21zm21.23 -7.55l-963.13 2182.05 -1484.91 -1310.97 963.13 -2182.05 1484.91 1310.97z"/>
     <path id="_87" class="fil38" d="M3618.91 1976.6l-1476.32 -1303.39 -957.56 2169.45 1476.32 1303.39 957.56 -2169.45zm21.23 -7.55l-974.27 2207.28 -1502.07 -1326.12 974.27 -2207.28 1502.07 1326.12z"/>
     <path id="_88" class="fil38" d="M3633.06 1971.57l-1493.48 -1318.55 -968.7 2194.67 1493.48 1318.55 968.7 -2194.67zm21.23 -7.56l-985.4 2232.51 -1519.24 -1341.27 985.4 -2232.51 1519.24 1341.27z"/>
     <path id="_89" class="fil38" d="M3647.21 1966.53l-1510.65 -1333.7 -979.83 2219.9 1510.65 1333.7 979.83 -2219.9zm21.23 -7.55l-996.54 2257.73 -1536.4 -1356.43 996.54 -2257.73 1536.4 1356.43z"/>
     <path id="_90" class="fil38" d="M3661.36 1961.5l-1527.82 -1348.86 -990.96 2245.12 1527.82 1348.86 990.96 -2245.12zm21.23 -7.56l-1007.67 2282.96 -1553.57 -1371.58 1007.67 -2282.96 1553.57 1371.58z"/>
     <path id="_91" class="fil39" d="M3675.51 1956.46l-1544.98 -1364.01 -1002.1 2270.35 1544.98 1364.01 1002.1 -2270.35zm21.23 -7.55l-1018.8 2308.19 -1570.74 -1386.75 1018.8 -2308.19 1570.74 1386.75z"/>
     <path id="_92" class="fil39" d="M3689.66 1951.43l-1562.15 -1379.17 -1013.23 2295.57 1562.15 1379.17 1013.23 -2295.57zm21.23 -7.56l-1029.94 2333.42 -1587.9 -1401.9 1029.94 -2333.42 1587.9 1401.9z"/>
     <path id="_93" class="fil40" d="M3703.81 1946.39l-1579.31 -1394.32 -1024.37 2320.8 1579.31 1394.32 1024.37 -2320.8zm21.23 -7.55l-1041.07 2358.64 -1605.07 -1417.06 1041.07 -2358.64 1605.07 1417.06z"/>
     <path id="_94" class="fil40" d="M3717.96 1941.36l-1596.48 -1409.48 -1035.5 2346.02 1596.48 1409.48 1035.5 -2346.02zm21.23 -7.56l-1052.21 2383.87 -1622.23 -1432.21 1052.21 -2383.87 1622.23 1432.21z"/>
     <path id="_95" class="fil41" d="M3732.11 1936.32l-1613.65 -1424.63 -1046.63 2371.25 1613.65 1424.63 1046.63 -2371.25zm21.23 -7.55l-1063.34 2409.09 -1639.4 -1447.37 1063.34 -2409.09 1639.4 1447.37z"/>
     <path id="_96" class="fil41" d="M3746.27 1931.29l-1630.82 -1439.79 -1057.78 2396.47 1630.82 1439.79 1057.78 -2396.47zm21.22 -7.56l-1074.47 2434.32 -1656.57 -1462.52 1074.47 -2434.32 1656.57 1462.52z"/>
     <path id="_97" class="fil41" d="M3760.42 1926.25l-1647.99 -1454.94 -1068.91 2421.7 1647.99 1454.94 1068.91 -2421.7zm21.22 -7.55l-1085.61 2459.54 -1673.73 -1477.68 1085.61 -2459.54 1673.73 1477.68z"/>
     <path id="_98" class="fil41" d="M3774.57 1921.22l-1665.15 -1470.1 -1080.05 2446.92 1665.15 1470.1 1080.05 -2446.92zm21.22 -7.56l-1096.74 2484.77 -1690.9 -1492.83 1096.74 -2484.77 1690.9 1492.83z"/>
     <path id="_99" class="fil42" d="M3788.72 1916.18l-1682.32 -1485.26 -1091.18 2472.16 1682.32 1485.26 1091.18 -2472.16zm21.22 -7.55l-1107.88 2509.99 -1708.06 -1507.99 1107.88 -2509.99 1708.06 1507.99z"/>
     <path id="_100" class="fil43" d="M3802.87 1911.15l-1699.49 -1500.42 -1102.31 2497.38 1699.49 1500.42 1102.31 -2497.38zm21.22 -7.56l-1119.01 2535.22 -1725.23 -1523.14 1119.01 -2535.22 1725.23 1523.14z"/>
     <path id="_101" class="fil43" d="M3817.02 1906.11l-1716.65 -1515.57 -1113.45 2522.61 1716.65 1515.57 1113.45 -2522.61zm21.22 -7.55l-1130.14 2560.44 -1742.4 -1538.3 1130.14 -2560.44 1742.4 1538.3z"/>
     <path id="_102" class="fil44" d="M3831.17 1901.07l-1733.82 -1530.72 -1124.58 2547.84 1733.82 1530.72 1124.58 -2547.84zm21.22 -7.55l-1141.28 2585.67 -1759.56 -1553.45 1141.28 -2585.67 1759.56 1553.45z"/>
     <path id="_103" class="fil44" d="M3845.32 1896.04l-1750.98 -1545.88 -1135.72 2573.06 1750.98 1545.88 1135.72 -2573.06zm21.22 -7.55l-1152.41 2610.9 -1776.73 -1568.62 1152.41 -2610.9 1776.73 1568.62z"/>
     <path id="_104" class="fil45" d="M3859.47 1891l-1768.15 -1561.03 -1146.85 2598.29 1768.15 1561.03 1146.85 -2598.29zm21.22 -7.55l-1163.55 2636.13 -1793.89 -1583.77 1163.55 -2636.13 1793.89 1583.77z"/>
     <path id="_105" class="fil45" d="M3873.62 1885.97l-1785.32 -1576.19 -1157.98 2623.51 1785.32 1576.19 1157.98 -2623.51zm21.23 -7.55l-1174.69 2661.35 -1811.07 -1598.93 1174.69 -2661.35 1811.07 1598.93z"/>
     <path id="_106" class="fil46" d="M3887.77 1880.93l-1802.48 -1591.34 -1169.12 2648.74 1802.48 1591.34 1169.12 -2648.74zm21.23 -7.55l-1185.82 2686.58 -1828.24 -1614.08 1185.82 -2686.58 1828.24 1614.08z"/>
     <path id="_107" class="fil46" d="M3901.92 1875.9l-1819.65 -1606.5 -1180.25 2673.96 1819.65 1606.5 1180.25 -2673.96zm21.23 -7.55l-1196.96 2711.8 -1845.4 -1629.24 1196.96 -2711.8 1845.4 1629.24z"/>
     <path id="_108" class="fil47" d="M3916.07 1870.86l-1836.81 -1621.65 -1191.39 2699.19 1836.81 1621.65 1191.39 -2699.19zm21.23 -7.55l-1208.09 2737.03 -1862.57 -1644.39 1208.09 -2737.03 1862.57 1644.39z"/>
     <path id="_109" class="fil47" d="M3930.22 1865.83l-1853.98 -1636.81 -1202.52 2724.41 1853.98 1636.81 1202.52 -2724.41zm21.23 -7.55l-1219.23 2762.25 -1879.73 -1659.55 1219.23 -2762.25 1879.73 1659.55z"/>
     <path id="_110" class="fil48" d="M3944.37 1860.79l-1871.15 -1651.97 -1213.65 2749.65 1871.15 1651.97 1213.65 -2749.65zm21.23 -7.55l-1230.36 2787.48 -1896.9 -1674.7 1230.36 -2787.48 1896.9 1674.7z"/>
     <path id="_111" class="fil48" d="M3958.52 1855.76l-1888.31 -1667.13 -1224.79 2774.87 1888.31 1667.13 1224.79 -2774.87zm21.23 -7.55l-1241.49 2812.7 -1914.07 -1689.86 1241.49 -2812.7 1914.07 1689.86z"/>
     <path id="_112" class="fil48" d="M3972.67 1850.72l-1905.48 -1682.28 -1235.92 2800.1 1905.48 1682.28 1235.92 -2800.1zm21.23 -7.55l-1252.63 2837.93 -1931.23 -1705.01 1252.63 -2837.93 1931.23 1705.01z"/>
     <path id="_113" class="fil48" d="M3986.82 1845.69l-1922.64 -1697.44 -1247.06 2825.32 1922.64 1697.44 1247.06 -2825.32zm21.23 -7.56l-1263.76 2863.16 -1948.4 -1720.16 1263.76 -2863.16 1948.4 1720.16z"/>
     <path id="_114" class="fil49" d="M4000.97 1840.65l-1939.81 -1712.59 -1258.19 2850.55 1939.81 1712.59 1258.19 -2850.55zm21.23 -7.55l-1274.9 2888.39 -1965.56 -1735.33 1274.9 -2888.39 1965.56 1735.33z"/>
     <path id="_115" class="fil49" d="M4015.12 1835.62l-1956.98 -1727.75 -1269.32 2875.77 1956.98 1727.75 1269.32 -2875.77zm21.23 -7.56l-1286.03 2913.62 -1982.73 -1750.48 1286.03 -2913.62 1982.73 1750.48z"/>
     <path id="_116" class="fil50" d="M4029.27 1830.58l-1974.14 -1742.9 -1280.46 2901 1974.14 1742.9 1280.46 -2901zm21.23 -7.55l-1297.16 2938.84 -1999.9 -1765.64 1297.16 -2938.84 1999.9 1765.64z"/>
     <path id="_117" class="fil50" d="M4043.43 1825.55l-1991.32 -1758.06 -1291.6 2926.22 1991.32 1758.06 1291.6 -2926.22zm21.22 -7.56l-1308.3 2964.07 -2017.06 -1780.79 1308.3 -2964.07 2017.06 1780.79z"/>
     <path id="_118" class="fil51" d="M4057.58 1820.51l-2008.48 -1773.21 -1302.74 2951.45 2008.48 1773.21 1302.74 -2951.45zm21.22 -7.55l-1319.43 2989.29 -2034.23 -1795.95 1319.43 -2989.29 2034.23 1795.95z"/>
     <path id="_119" class="fil51" d="M4071.73 1815.48l-2025.65 -1788.37 -1313.87 2976.67 2025.65 1788.37 1313.87 -2976.67zm21.22 -7.56l-1330.57 3014.52 -2051.39 -1811.1 1330.57 -3014.52 2051.39 1811.1z"/>
     <path id="_120" class="fil51" d="M4085.88 1810.44l-2042.82 -1803.52 -1325 3001.9 2042.82 1803.52 1325 -3001.9zm21.22 -7.55l-1341.7 3039.74 -2068.56 -1826.26 1341.7 -3039.74 2068.56 1826.26z"/>
     <path id="_121" class="fil52" d="M4100.03 1805.41l-2059.98 -1818.69 -1336.14 3027.13 2059.98 1818.69 1336.14 -3027.13zm21.22 -7.56l-1352.83 3064.97 -2085.73 -1841.41 1352.83 -3064.97 2085.73 1841.41z"/>
     <path id="_122" class="fil52" d="M4114.18 1800.37l-2077.15 -1833.84 -1347.27 3052.36 2077.15 1833.84 1347.27 -3052.36zm21.22 -7.55l-1363.97 3090.19 -2102.89 -1856.57 1363.97 -3090.19 2102.89 1856.57z"/>
     <path id="_123" class="fil52" d="M4128.33 1795.34l-2094.31 -1849 -1358.41 3077.58 2094.31 1849 1358.41 -3077.58zm21.22 -7.56l-1375.1 3115.42 -2120.06 -1871.72 1375.1 -3115.42 2120.06 1871.72z"/>
     <path id="_124" class="fil53" d="M4142.48 1790.3l-2111.48 -1864.15 -1369.54 3102.81 2111.48 1864.15 1369.54 -3102.81zm21.22 -7.55l-1386.24 3140.64 -2137.22 -1886.88 1386.24 -3140.64 2137.22 1886.88z"/>
     <path id="_125" class="fil54" d="M4156.63 1785.27l-2128.65 -1879.31 -1380.67 3128.03 2128.65 1879.31 1380.67 -3128.03zm21.22 -7.56l-1397.37 3165.87 -2154.39 -1902.03 1397.37 -3165.87 2154.39 1902.03z"/>
     <path id="_126" class="fil54" d="M4170.78 1780.23l-2145.81 -1894.46 -1391.81 3153.26 2145.81 1894.46 1391.81 -3153.26zm21.23 -7.55l-1408.51 3191.1 -2171.57 -1917.2 1408.51 -3191.1 2171.57 1917.2z"/>
     <path id="_127" class="fil54" d="M4184.93 1775.2l-2162.98 -1909.62 -1402.94 3178.48 2162.98 1909.62 1402.94 -3178.48zm21.23 -7.56l-1419.65 3216.33 -2188.73 -1932.35 1419.65 -3216.33 2188.73 1932.35z"/>
     <path id="_128" class="fil54" d="M4199.08 1770.16l-2180.14 -1924.77 -1414.08 3203.71 2180.14 1924.77 1414.08 -3203.71zm21.23 -7.55l-1430.78 3241.55 -2205.9 -1947.51 1430.78 -3241.55 2205.9 1947.51z"/>
     <path id="_129" class="fil55" d="M4213.23 1765.12l-2197.31 -1939.92 -1425.21 3228.94 2197.31 1939.92 1425.21 -3228.94zm21.23 -7.55l-1441.92 3266.78 -2223.06 -1962.66 1441.92 -3266.78 2223.06 1962.66z"/>
     <path id="_130" class="fil55" d="M4227.38 1760.09l-2214.48 -1955.08 -1436.34 3254.16 2214.48 1955.08 1436.34 -3254.16zm21.23 -7.55l-1453.05 3292 -2240.23 -1977.82 1453.05 -3292 2240.23 1977.82z"/>
     <path id="_131" class="fil55" d="M4241.53 1755.05l-2231.64 -1970.23 -1447.48 3279.39 2231.64 1970.23 1447.48 -3279.39zm21.23 -7.55l-1464.18 3317.23 -2257.4 -1992.97 1464.18 -3317.23 2257.4 1992.97z"/>
     <path id="_132" class="fil56" d="M4255.68 1750.02l-2248.81 -1985.39 -1458.61 3304.61 2248.81 1985.39 1458.61 -3304.61zm21.23 -7.55l-1475.32 3342.45 -2274.56 -2008.13 1475.32 -3342.45 2274.56 2008.13z"/>
     <path id="_133" class="fil57" d="M4269.83 1744.98l-2265.97 -2000.55 -1469.75 3329.85 2265.97 2000.55 1469.75 -3329.85zm21.23 -7.55l-1486.45 3367.68 -2291.73 -2023.28 1486.45 -3367.68 2291.73 2023.28z"/>
     <path id="_134" class="fil57" d="M4283.98 1739.95l-2283.14 -2015.71 -1480.88 3355.07 2283.14 2015.71 1480.88 -3355.07zm21.23 -7.55l-1497.59 3392.9 -2308.89 -2038.44 1497.59 -3392.9 2308.89 2038.44z"/>
     <path id="_135" class="fil57" d="M4298.13 1734.91l-2300.31 -2030.86 -1492.01 3380.3 2300.31 2030.86 1492.01 -3380.3zm21.23 -7.55l-1508.72 3418.13 -2326.06 -2053.59 1508.72 -3418.13 2326.06 2053.59z"/>
     <path id="_136" class="fil58" d="M4312.28 1729.88l-2317.47 -2046.02 -1503.15 3405.52 2317.47 2046.02 1503.15 -3405.52zm21.23 -7.55l-1519.85 3443.35 -2343.23 -2068.75 1519.85 -3443.35 2343.23 2068.75z"/>
     <path id="_137" class="fil59" d="M4326.43 1724.84l-2334.64 -2061.17 -1514.28 3430.75 2334.64 2061.17 1514.28 -3430.75zm21.23 -7.55l-1530.99 3468.59 -2360.39 -2083.91 1530.99 -3468.59 2360.39 2083.91z"/>
     <path id="_138" class="fil59" d="M4340.59 1719.81l-2351.81 -2076.33 -1525.43 3455.97 2351.81 2076.33 1525.43 -3455.97zm21.22 -7.55l-1542.12 3493.81 -2377.56 -2099.07 1542.12 -3493.81 2377.56 2099.07z"/>
     <path id="_139" class="fil59" d="M4354.74 1714.77l-2368.98 -2091.48 -1536.56 3481.2 2368.98 2091.48 1536.56 -3481.2zm21.22 -7.55l-1553.26 3519.04 -2394.72 -2114.22 1553.26 -3519.04 2394.72 2114.22z"/>
     <path id="_140" class="fil60" d="M4368.89 1709.74l-2386.15 -2106.64 -1547.69 3506.42 2386.15 2106.64 1547.69 -3506.42zm21.22 -7.56l-1564.39 3544.27 -2411.89 -2129.37 1564.39 -3544.27 2411.89 2129.37z"/>
     <path id="_141" class="fil61" d="M4383.04 1704.7l-2403.31 -2121.79 -1558.83 3531.65 2403.31 2121.79 1558.83 -3531.65zm21.22 -7.55l-1575.52 3569.49 -2429.06 -2144.53 1575.52 -3569.49 2429.06 2144.53z"/>
     <path id="_142" class="fil61" d="M4397.19 1699.67l-2420.48 -2136.95 -1569.96 3556.87 2420.48 2136.95 1569.96 -3556.87zm21.22 -7.56l-1586.66 3594.72 -2446.22 -2159.68 1586.66 -3594.72 2446.22 2159.68z"/>
     <path id="_143" class="fil61" d="M4411.34 1694.63l-2437.64 -2152.1 -1581.1 3582.1 2437.64 2152.1 1581.1 -3582.1zm21.22 -7.55l-1597.79 3619.94 -2463.39 -2174.84 1597.79 -3619.94 2463.39 2174.84z"/>
     <path id="_144" class="fil62" d="M4425.49 1689.6l-2454.81 -2167.27 -1592.23 3607.33 2454.81 2167.27 1592.23 -3607.33zm21.22 -7.56l-1608.93 3645.17 -2480.55 -2189.99 1608.93 -3645.17 2480.55 2189.99z"/>
     <path id="_145" class="fil62" d="M4439.64 1684.56l-2471.98 -2182.42 -1603.36 3632.56 2471.98 2182.42 1603.36 -3632.56zm21.22 -7.55l-1620.06 3670.39 -2497.72 -2205.15 1620.06 -3670.39 2497.72 2205.15z"/>
     <path id="_146" class="fil62" d="M4453.79 1679.53l-2489.14 -2197.58 -1614.5 3657.78 2489.14 2197.58 1614.5 -3657.78zm21.22 -7.56l-1631.19 3695.62 -2514.89 -2220.3 1631.19 -3695.62 2514.89 2220.3z"/>
     <path id="_147" class="fil63" d="M4467.94 1674.49l-2506.31 -2212.73 -1625.63 3683.01 2506.31 2212.73 1625.63 -3683.01zm21.23 -7.55l-1642.34 3720.84 -2532.06 -2235.46 1642.34 -3720.84 2532.06 2235.46z"/>
     <path id="_148" class="fil64" d="M4482.09 1669.46l-2523.47 -2227.89 -1636.77 3708.23 2523.47 2227.89 1636.77 -3708.23zm21.23 -7.56l-1653.47 3746.07 -2549.23 -2250.61 1653.47 -3746.07 2549.23 2250.61z"/>
     <path id="_149" class="fil64" d="M4496.24 1664.42l-2540.64 -2243.04 -1647.9 3733.46 2540.64 2243.04 1647.9 -3733.46zm21.23 -7.55l-1664.6 3771.3 -2566.4 -2265.78 1664.6 -3771.3 2566.4 2265.78z"/>
     <path id="_150" class="fil64" d="M4510.39 1659.39l-2557.81 -2258.2 -1659.03 3758.68 2557.81 2258.2 1659.03 -3758.68zm21.23 -7.56l-1675.74 3796.53 -2583.56 -2280.93 1675.74 -3796.53 2583.56 2280.93z"/>
     <path id="_151" class="fil64" d="M4524.54 1654.35l-2574.97 -2273.35 -1670.17 3783.91 2574.97 2273.35 1670.17 -3783.91zm21.23 -7.55l-1686.87 3821.75 -2600.73 -2296.09 1686.87 -3821.75 2600.73 2296.09z"/>
     <path id="_152" class="fil65" d="M4538.69 1649.32l-2592.14 -2288.51 -1681.3 3809.13 2592.14 2288.51 1681.3 -3809.13zm21.23 -7.56l-1698.01 3846.98 -2617.89 -2311.24 1698.01 -3846.98 2617.89 2311.24z"/>
     <path id="_153" class="fil65" d="M4552.84 1644.28l-2609.31 -2303.66 -1692.43 3834.36 2609.31 2303.66 1692.43 -3834.36zm21.23 -7.55l-1709.14 3872.2 -2635.06 -2326.4 1709.14 -3872.2 2635.06 2326.4z"/>
     <path id="_154" class="fil65" d="M4566.99 1639.24l-2626.47 -2318.81 -1703.57 3859.59 2626.47 2318.81 1703.57 -3859.59zm21.23 -7.55l-1720.27 3897.43 -2652.23 -2341.55 1720.27 -3897.43 2652.23 2341.55z"/>
     <path id="_155" class="fil66" d="M4581.14 1634.21l-2643.64 -2333.97 -1714.7 3884.81 2643.64 2333.97 1714.7 -3884.81zm21.23 -7.55l-1731.41 3922.65 -2669.39 -2356.71 1731.41 -3922.65 2669.39 2356.71z"/>
     <path id="_156" class="fil67" d="M4595.29 1629.17l-2660.8 -2349.13 -1725.84 3910.05 2660.8 2349.13 1725.84 -3910.05zm21.23 -7.55l-1742.54 3947.88 -2686.56 -2371.86 1742.54 -3947.88 2686.56 2371.86z"/>
     <path id="_157" class="fil68" d="M4609.44 1624.14l-2677.97 -2364.29 -1736.97 3935.27 2677.97 2364.29 1736.97 -3935.27zm21.23 -7.55l-1753.68 3973.1 -2703.72 -2387.02 1753.68 -3973.1 2703.72 2387.02z"/>
     <path id="_158" class="fil68" d="M4623.6 1619.1l-2695.15 -2379.44 -1748.11 3960.5 2695.15 2379.44 1748.11 -3960.5zm21.22 -7.55l-1764.81 3998.33 -2720.89 -2402.17 1764.81 -3998.33 2720.89 2402.17z"/>
     <path id="_159" class="fil68" d="M4637.75 1614.07l-2712.31 -2394.6 -1759.25 3985.72 2712.31 2394.6 1759.25 -3985.72zm21.22 -7.55l-1775.94 4023.55 -2738.06 -2417.33 1775.94 -4023.55 2738.06 2417.33z"/>
     <path id="_160" class="fil69" d="M4651.9 1609.03l-2729.48 -2409.75 -1770.38 4010.95 2729.48 2409.75 1770.38 -4010.95zm21.22 -7.55l-1787.08 4048.79 -2755.22 -2432.49 1787.08 -4048.79 2755.22 2432.49z"/>
     <path id="_161" class="fil69" d="M4666.05 1604l-2746.64 -2424.91 -1781.52 4036.17 2746.64 2424.91 1781.52 -4036.17zm21.22 -7.55l-1798.21 4074.01 -2772.39 -2447.65 1798.21 -4074.01 2772.39 2447.65z"/>
     <path id="_162" class="fil69" d="M4680.2 1598.96l-2763.81 -2440.06 -1792.65 4061.4 2763.81 2440.06 1792.65 -4061.4zm21.22 -7.55l-1809.35 4099.24 -2789.55 -2462.8 1809.35 -4099.24 2789.55 2462.8z"/>
     <path id="_163" class="fil70" d="M4694.35 1593.93l-2780.98 -2455.22 -1803.78 4086.62 2780.98 2455.22 1803.78 -4086.62zm21.22 -7.55l-1820.48 4124.46 -2806.72 -2477.96 1820.48 -4124.46 2806.72 2477.96z"/>
     <path id="_164" class="fil70" d="M4708.5 1588.89l-2798.14 -2470.37 -1814.92 4111.85 2798.14 2470.37 1814.92 -4111.85zm21.22 -7.55l-1831.61 4149.69 -2823.89 -2493.11 1831.61 -4149.69 2823.89 2493.11z"/>
     <path id="_165" class="fil71" d="M4722.65 1583.86l-2815.31 -2485.53 -1826.05 4137.07 2815.31 2485.53 1826.05 -4137.07zm21.22 -7.56l-1842.75 4174.92 -2841.05 -2508.26 1842.75 -4174.92 2841.05 2508.26z"/>
     <path id="_166" class="fil72" d="M4736.8 1578.82l-2832.47 -2500.68 -1837.19 4162.3 2832.47 2500.68 1837.19 -4162.3zm21.22 -7.55l-1853.88 4200.14 -2858.22 -2523.42 1853.88 -4200.14 2858.22 2523.42z"/>
     <path id="_167" class="fil72" d="M4750.95 1573.79l-2849.64 -2515.85 -1848.32 4187.53 2849.64 2515.85 1848.32 -4187.53zm21.23 -7.56l-1865.03 4225.37 -2875.39 -2538.57 1865.03 -4225.37 2875.39 2538.57z"/>
     <path id="_168" class="fil73" d="M4765.1 1568.75l-2866.81 -2531 -1859.45 4212.76 2866.81 2531 1859.45 -4212.76zm21.23 -7.55l-1876.16 4250.59 -2892.56 -2553.73 1876.16 -4250.59 2892.56 2553.73z"/>
     <path id="_169" class="fil73" d="M4779.25 1563.72l-2883.97 -2546.16 -1870.59 4237.98 2883.97 2546.16 1870.59 -4237.98zm21.23 -7.56l-1887.29 4275.82 -2909.73 -2568.88 1887.29 -4275.82 2909.73 2568.88z"/>
     <path id="_170" class="fil74" d="M4793.4 1558.68l-2901.14 -2561.31 -1881.72 4263.21 2901.14 2561.31 1881.72 -4263.21zm21.23 -7.55l-1898.43 4301.04 -2926.89 -2584.04 1898.43 -4301.04 2926.89 2584.04z"/>
     <path id="_171" class="fil75" d="M4807.55 1553.65l-2918.3 -2576.47 -1892.86 4288.43 2918.3 2576.47 1892.86 -4288.43zm21.23 -7.56l-1909.56 4326.28 -2944.06 -2599.2 1909.56 -4326.28 2944.06 2599.2z"/>
     <path id="_172" class="fil75" d="M4821.7 1548.61l-2935.47 -2591.62 -1903.99 4313.66 2935.47 2591.62 1903.99 -4313.66zm21.23 -7.55l-1920.7 4351.5 -2961.22 -2614.36 1920.7 -4351.5 2961.22 2614.36z"/>
     <path id="_173" class="fil76" d="M4835.85 1543.58l-2952.64 -2606.78 -1915.12 4338.88 2952.64 2606.78 1915.12 -4338.88zm21.23 -7.56l-1931.83 4376.73 -2978.39 -2629.51 1931.83 -4376.73 2978.39 2629.51z"/>
     <path id="_174" class="fil76" d="M4850 1538.54l-2969.8 -2621.93 -1926.26 4364.11 2969.8 2621.93 1926.26 -4364.11zm21.23 -7.55l-1942.96 4401.95 -2995.56 -2644.67 1942.96 -4401.95 2995.56 2644.67z"/>
     <path id="_175" class="fil76" d="M4864.15 1533.51l-2986.97 -2637.09 -1937.39 4389.33 2986.97 2637.09 1937.39 -4389.33zm21.23 -7.56l-1954.1 4427.18 -3012.72 -2659.82 1954.1 -4427.18 3012.72 2659.82z"/>
     <path id="_176" class="fil77" d="M4878.3 1528.47l-3004.13 -2652.24 -1948.53 4414.56 3004.13 2652.24 1948.53 -4414.56zm21.23 -7.55l-1965.23 4452.4 -3029.89 -2674.98 1965.23 -4452.4 3029.89 2674.98z"/>
     <path id="_177" class="fil78" d="M4892.45 1523.44l-3021.3 -2667.4 -1959.66 4439.78 3021.3 2667.4 1959.66 -4439.78zm21.23 -7.56l-1976.37 4477.63 -3047.05 -2690.13 1976.37 -4477.63 3047.05 2690.13z"/>
     <path id="_178" class="fil79" d="M4906.6 1518.4l-3038.47 -2682.55 -1970.79 4465.01 3038.47 2682.55 1970.79 -4465.01zm21.23 -7.55l-1987.5 4502.85 -3064.22 -2705.29 1987.5 -4502.85 3064.22 2705.29z"/>
     <path id="_179" class="fil79" d="M4920.76 1513.36l-3055.64 -2697.71 -1981.94 4490.25 3055.64 2697.71 1981.94 -4490.25zm21.22 -7.55l-1998.63 4528.08 -3081.39 -2720.44 1998.63 -4528.08 3081.39 2720.44z"/>
     <path id="_180" class="fil79" d="M4934.91 1508.33l-3072.81 -2712.87 -1993.07 4515.47 3072.81 2712.87 1993.07 -4515.47zm21.22 -7.55l-2009.77 4553.3 -3098.55 -2735.6 2009.77 -4553.3 3098.55 2735.6z"/>
     <path id="_181" class="fil80" d="M4949.06 1503.29l-3089.97 -2728.02 -2004.21 4540.7 3089.97 2728.02 2004.21 -4540.7zm21.22 -7.55l-2020.9 4578.53 -3115.72 -2750.75 2020.9 -4578.53 3115.72 2750.75z"/>
     <path id="_182" class="fil81" d="M4963.21 1498.26l-3107.14 -2743.18 -2015.34 4565.92 3107.14 2743.18 2015.34 -4565.92zm21.22 -7.55l-2032.04 4603.75 -3132.88 -2765.91 2032.04 -4603.75 3132.88 2765.91z"/>
     <path id="_183" class="fil81" d="M4977.36 1493.22l-3124.31 -2758.33 -2026.47 4591.15 3124.31 2758.33 2026.47 -4591.15zm21.22 -7.55l-2043.17 4628.99 -3150.05 -2781.07 2043.17 -4628.99 3150.05 2781.07z"/>
     <path id="_184" class="fil82" d="M4991.51 1488.19l-3141.47 -2773.49 -2037.61 4616.37 3141.47 2773.49 2037.61 -4616.37zm21.22 -7.55l-2054.3 4654.21 -3167.22 -2796.23 2054.3 -4654.21 3167.22 2796.23z"/>
     <path id="_185" class="fil82" d="M5005.66 1483.15l-3158.64 -2788.64 -2048.74 4641.6 3158.64 2788.64 2048.74 -4641.6zm21.22 -7.55l-2065.44 4679.44 -3184.38 -2811.38 2065.44 -4679.44 3184.38 2811.38z"/>
     <path id="_186" class="fil83" d="M5019.81 1478.12l-3175.8 -2803.8 -2059.88 4666.82 3175.8 2803.8 2059.88 -4666.82zm21.22 -7.55l-2076.57 4704.66 -3201.55 -2826.54 2076.57 -4704.66 3201.55 2826.54z"/>
     <path id="_187" class="fil83" d="M5033.96 1473.08l-3192.97 -2818.95 -2071.01 4692.05 3192.97 2818.95 2071.01 -4692.05zm21.22 -7.55l-2087.71 4729.89 -3218.71 -2841.69 2087.71 -4729.89 3218.71 2841.69z"/>
     <path id="_188" class="fil84" d="M5048.11 1468.05l-3210.14 -2834.11 -2082.14 4717.27 3210.14 2834.11 2082.14 -4717.27zm21.23 -7.55l-2098.85 4755.11 -3235.89 -2856.85 2098.85 -4755.11 3235.89 2856.85z"/>
     <path id="_189" class="fil85" d="M5062.26 1463.01l-3227.3 -2849.26 -2093.28 4742.5 3227.3 2849.26 2093.28 -4742.5zm21.23 -7.55l-2109.98 4780.34 -3253.06 -2872 2109.98 -4780.34 3253.06 2872z"/>
     <path id="_190" class="fil85" d="M5076.41 1457.98l-3244.47 -2864.43 -2104.41 4767.73 3244.47 2864.43 2104.41 -4767.73zm21.23 -7.56l-2121.12 4805.57 -3270.22 -2887.15 2121.12 -4805.57 3270.22 2887.15z"/>
     <path id="_191" class="fil85" d="M5090.56 1452.94l-3261.63 -2879.58 -2115.55 4792.96 3261.63 2879.58 2115.55 -4792.96zm21.23 -7.55l-2132.25 4830.79 -3287.39 -2902.31 2132.25 -4830.79 3287.39 2902.31z"/>
     <path id="_192" class="fil86" d="M5104.71 1447.91l-3278.8 -2894.74 -2126.68 4818.18 3278.8 2894.74 2126.68 -4818.18zm21.23 -7.56l-2143.39 4856.02 -3304.55 -2917.46 2143.39 -4856.02 3304.55 2917.46z"/>
     <path id="_193" class="fil87" d="M5118.86 1442.87l-3295.97 -2909.89 -2137.81 4843.41 3295.97 2909.89 2137.81 -4843.41zm21.23 -7.55l-2154.52 4881.24 -3321.72 -2932.62 2154.52 -4881.24 3321.72 2932.62z"/>
     <path id="_194" class="fil88" d="M5133.01 1437.84l-3313.13 -2925.05 -2148.95 4868.63 3313.13 2925.05 2148.95 -4868.63zm21.23 -7.56l-2165.65 4906.48 -3338.89 -2947.78 2165.65 -4906.48 3338.89 2947.78z"/>
     <path id="_195" class="fil88" d="M5147.16 1432.8l-3330.3 -2940.2 -2160.08 4893.86 3330.3 2940.2 2160.08 -4893.86zm21.23 -7.55l-2176.79 4931.7 -3356.05 -2962.94 2176.79 -4931.7 3356.05 2962.94z"/>
     <path id="_196" class="fil88" d="M5161.31 1427.77l-3347.46 -2955.36 -2171.22 4919.08 3347.46 2955.36 2171.22 -4919.08zm21.23 -7.56l-2187.92 4956.93 -3373.22 -2978.09 2187.92 -4956.93 3373.22 2978.09z"/>
     <path id="_197" class="fil89" d="M5175.46 1422.73l-3364.63 -2970.51 -2182.35 4944.31 3364.63 2970.51 2182.35 -4944.31zm21.23 -7.55l-2199.06 4982.15 -3390.38 -2993.25 2199.06 -4982.15 3390.38 2993.25z"/>
     <path id="_198" class="fil89" d="M5189.61 1417.7l-3381.8 -2985.67 -2193.48 4969.53 3381.8 2985.67 2193.48 -4969.53zm21.23 -7.56l-2210.19 5007.38 -3407.55 -3008.4 2210.19 -5007.38 3407.55 3008.4z"/>
     <path id="_199" class="fil90" d="M5203.76 1412.66l-3398.96 -3000.82 -2204.62 4994.76 3398.96 3000.82 2204.62 -4994.76zm21.23 -7.55l-2221.32 5032.6 -3424.72 -3023.56 2221.32 -5032.6 3424.72 3023.56z"/>
     <path id="_200" class="fil91" d="M5217.92 1407.63l-3416.14 -3015.98 -2215.76 5019.98 3416.14 3015.98 2215.76 -5019.98zm21.22 -7.56l-2232.46 5057.83 -3441.88 -3038.71 2232.46 -5057.83 3441.88 3038.71z"/>
     <path id="_201" class="fil91" d="M5232.07 1402.59l-3433.3 -3031.14 -2226.9 5045.22 3433.3 3031.14 2226.9 -5045.22zm21.22 -7.55l-2243.59 5083.05 -3459.05 -3053.87 2243.59 -5083.05 3459.05 3053.87z"/>
     <path id="_202" class="fil92" d="M5246.22 1397.56l-3450.47 -3046.3 -2238.03 5070.44 3450.47 3046.3 2238.03 -5070.44zm21.22 -7.56l-2254.73 5108.28 -3476.21 -3069.02 2254.73 -5108.28 3476.21 3069.02z"/>
     <path id="_203" class="fil92" d="M5260.37 1392.52l-3467.64 -3061.45 -2249.16 5095.67 3467.64 3061.45 2249.16 -5095.67zm21.22 -7.55l-2265.86 5133.5 -3493.38 -3084.18 2265.86 -5133.5 3493.38 3084.18z"/>
     <path id="_204" class="fil93" d="M5274.52 1387.48l-3484.8 -3076.6 -2260.3 5120.9 3484.8 3076.6 2260.3 -5120.9zm21.22 -7.55l-2276.99 5158.73 -3510.55 -3099.33 2276.99 -5158.73 3510.55 3099.33z"/>
     <path id="_205" class="fil94" d="M5288.67 1382.45l-3501.97 -3091.76 -2271.43 5146.12 3501.97 3091.76 2271.43 -5146.12zm21.22 -7.55l-2288.13 5183.95 -3527.71 -3114.49 2288.13 -5183.95 3527.71 3114.49z"/>
     <path id="_206" class="fil94" d="M5302.82 1377.41l-3519.13 -3106.91 -2282.57 5171.35 3519.13 3106.91 2282.57 -5171.35zm21.22 -7.55l-2299.26 5209.19 -3544.88 -3129.65 2299.26 -5209.19 3544.88 3129.65z"/>
     <path id="_207" class="fil94" d="M5316.97 1372.38l-3536.3 -3122.07 -2293.7 5196.57 3536.3 3122.07 2293.7 -5196.57zm21.22 -7.55l-2310.4 5234.41 -3562.04 -3144.81 2310.4 -5234.41 3562.04 3144.81z"/>
     <path id="_208" class="fil95" d="M5331.12 1367.34l-3553.47 -3137.22 -2304.83 5221.8 3553.47 3137.22 2304.83 -5221.8zm21.22 -7.55l-2321.53 5259.64 -3579.21 -3159.96 2321.53 -5259.64 3579.21 3159.96z"/>
     <path id="_209" class="fil95" d="M5345.27 1362.31l-3570.63 -3152.38 -2315.97 5247.02 3570.63 3152.38 2315.97 -5247.02zm21.23 -7.55l-2332.67 5284.86 -3596.39 -3175.12 2332.67 -5284.86 3596.39 3175.12z"/>
     <path id="_210" class="fil96" d="M5359.42 1357.27l-3587.8 -3167.53 -2327.1 5272.25 3587.8 3167.53 2327.1 -5272.25zm21.23 -7.55l-2343.81 5310.09 -3613.55 -3190.27 2343.81 -5310.09 3613.55 3190.27z"/>
     <path id="_211" class="fil96" d="M5373.57 1352.24l-3604.96 -3182.69 -2338.24 5297.47 3604.96 3182.69 2338.24 -5297.47zm21.23 -7.55l-2354.94 5335.31 -3630.72 -3205.43 2354.94 -5335.31 3630.72 3205.43z"/>
     <path id="_212" class="fil96" d="M5387.72 1347.2l-3622.13 -3197.84 -2349.37 5322.7 3622.13 3197.84 2349.37 -5322.7zm21.23 -7.55l-2366.08 5360.54 -3647.88 -3220.58 2366.08 -5360.54 3647.88 3220.58z"/>
     <path id="_213" class="fil97" d="M5401.87 1342.17l-3639.3 -3213.01 -2360.5 5347.93 3639.3 3213.01 2360.5 -5347.93zm21.23 -7.55l-2377.21 5385.76 -3665.05 -3235.74 2377.21 -5385.76 3665.05 3235.74z"/>
     <path id="_214" class="fil97" d="M5416.02 1337.13l-3656.46 -3228.16 -2371.64 5373.16 3656.46 3228.16 2371.64 -5373.16zm21.23 -7.55l-2388.34 5410.99 -3682.22 -3250.89 2388.34 -5410.99 3682.22 3250.89z"/>
     <path id="_215" class="fil98" d="M5430.17 1332.1l-3673.63 -3243.32 -2382.77 5398.38 3673.63 3243.32 2382.77 -5398.38zm21.23 -7.56l-2399.48 5436.22 -3699.38 -3266.04 2399.48 -5436.22 3699.38 3266.04z"/>
     <path id="_216" class="fil98" d="M5444.32 1327.06l-3690.79 -3258.47 -2393.91 5423.61 3690.79 3258.47 2393.91 -5423.61zm21.23 -7.55l-2410.61 5461.44 -3716.55 -3281.2 2410.61 -5461.44 3716.55 3281.2z"/>
     <path id="_217" class="fil98" d="M5458.47 1322.03l-3707.96 -3273.63 -2405.04 5448.83 3707.96 3273.63 2405.04 -5448.83zm21.23 -7.56l-2421.75 5486.68 -3733.71 -3296.36 2421.75 -5486.68 3733.71 3296.36z"/>
     <path id="_218" class="fil99" d="M5472.62 1316.99l-3725.13 -3288.78 -2416.17 5474.06 3725.13 3288.78 2416.17 -5474.06zm21.23 -7.55l-2432.88 5511.9 -3750.88 -3311.52 2432.88 -5511.9 3750.88 3311.52z"/>
     <path id="_219" class="fil99" d="M5486.77 1311.96l-3742.29 -3303.94 -2427.31 5499.28 3742.29 3303.94 2427.31 -5499.28zm21.23 -7.56l-2444.01 5537.13 -3768.05 -3326.67 2444.01 -5537.13 3768.05 3326.67z"/>
     <path id="_220" class="fil99" d="M5500.92 1306.92l-3759.46 -3319.09 -2438.44 5524.51 3759.46 3319.09 2438.44 -5524.51zm21.23 -7.55l-2455.15 5562.35 -3785.21 -3341.83 2455.15 -5562.35 3785.21 3341.83z"/>
     <path id="_221" class="fil100" d="M5515.08 1301.89l-3776.63 -3334.25 -2449.59 5549.73 3776.63 3334.25 2449.59 -5549.73zm21.22 -7.56l-2466.28 5587.58 -3802.38 -3356.98 2466.28 -5587.58 3802.38 3356.98z"/>
     <path id="_222" class="fil100" d="M5529.23 1296.85l-3793.8 -3349.4 -2460.72 5574.96 3793.8 3349.4 2460.72 -5574.96zm21.22 -7.55l-2477.42 5612.8 -3819.54 -3372.14 2477.42 -5612.8 3819.54 3372.14z"/>
     <path id="_223" class="fil101" d="M5543.38 1291.82l-3810.97 -3364.56 -2471.85 5600.18 3810.97 3364.56 2471.85 -5600.18zm21.22 -7.56l-2488.55 5638.03 -3836.71 -3387.29 2488.55 -5638.03 3836.71 3387.29z"/>
     <path id="_224" class="fil101" d="M5557.53 1286.78l-3828.13 -3379.72 -2482.99 5625.42 3828.13 3379.72 2482.99 -5625.42zm21.22 -7.55l-2499.68 5663.25 -3853.88 -3402.45 2499.68 -5663.25 3853.88 3402.45z"/>
     <path id="_225" class="fil101" d="M5571.68 1281.75l-3845.3 -3394.88 -2494.12 5650.64 3845.3 3394.88 2494.12 -5650.64zm21.22 -7.56l-2510.82 5688.48 -3871.04 -3417.6 2510.82 -5688.48 3871.04 3417.6z"/>
     <path id="_226" class="fil102" d="M5585.83 1276.71l-3862.46 -3410.03 -2505.26 5675.87 3862.46 3410.03 2505.26 -5675.87zm21.22 -7.55l-2521.95 5713.7 -3888.21 -3432.76 2521.95 -5713.7 3888.21 3432.76z"/>
     <path id="_227" class="fil102" d="M5599.98 1271.68l-3879.63 -3425.19 -2516.39 5701.09 3879.63 3425.19 2516.39 -5701.09zm21.22 -7.56l-2533.09 5738.93 -3905.37 -3447.91 2533.09 -5738.93 3905.37 3447.91z"/>
     <path id="_228" class="fil102" d="M5614.13 1266.64l-3896.8 -3440.34 -2527.52 5726.32 3896.8 3440.34 2527.52 -5726.32zm21.22 -7.55l-2544.22 5764.15 -3922.54 -3463.07 2544.22 -5764.15 3922.54 3463.07z"/>
     <path id="_229" class="fil103" d="M5628.28 1261.6l-3913.96 -3455.49 -2538.66 5751.55 3913.96 3455.49 2538.66 -5751.55zm21.22 -7.55l-2555.35 5789.39 -3939.71 -3478.23 2555.35 -5789.39 3939.71 3478.23z"/>
     <path id="_230" class="fil104" d="M5642.43 1256.57l-3931.13 -3470.65 -2549.79 5776.77 3931.13 3470.65 2549.79 -5776.77zm21.23 -7.55l-2566.5 5814.61 -3956.88 -3493.39 2566.5 -5814.61 3956.88 3493.39z"/>
     <path id="_231" class="fil105" d="M5656.58 1251.53l-3948.29 -3485.8 -2560.93 5802 3948.29 3485.8 2560.93 -5802zm21.23 -7.55l-2577.63 5839.84 -3974.05 -3508.54 2577.63 -5839.84 3974.05 3508.54z"/>
     <path id="_232" class="fil106" d="M5670.73 1246.5l-3965.46 -3500.96 -2572.06 5827.22 3965.46 3500.96 2572.06 -5827.22zm21.23 -7.55l-2588.77 5865.06 -3991.21 -3523.7 2588.77 -5865.06 3991.21 3523.7z"/>
     <path id="_233" class="fil106" d="M5684.88 1241.46l-3982.63 -3516.11 -2583.19 5852.45 3982.63 3516.11 2583.19 -5852.45zm21.23 -7.55l-2599.9 5890.29 -4008.38 -3538.85 2599.9 -5890.29 4008.38 3538.85z"/>
     <path id="_234" class="fil107" d="M5699.03 1236.43l-3999.79 -3531.27 -2594.33 5877.67 3999.79 3531.27 2594.33 -5877.67zm21.23 -7.55l-2611.03 5915.51 -4025.55 -3554.01 2611.03 -5915.51 4025.55 3554.01z"/>
     <path id="_235" class="fil107" d="M5713.18 1231.39l-4016.96 -3546.42 -2605.46 5902.9 4016.96 3546.42 2605.46 -5902.9zm21.23 -7.55l-2622.17 5940.74 -4042.71 -3569.16 2622.17 -5940.74 4042.71 3569.16z"/>
     <path id="_236" class="fil107" d="M5727.33 1226.36l-4034.12 -3561.59 -2616.6 5928.13 4034.12 3561.59 2616.6 -5928.13zm21.23 -7.55l-2633.3 5965.96 -4059.88 -3584.32 2633.3 -5965.96 4059.88 3584.32z"/>
     <path id="_237" class="fil108" d="M5741.48 1221.32l-4051.29 -3576.74 -2627.73 5953.36 4051.29 3576.74 2627.73 -5953.36zm21.23 -7.55l-2644.44 5991.19 -4077.04 -3599.47 2644.44 -5991.19 4077.04 3599.47z"/>
     <path id="_238" class="fil109" d="M5755.63 1216.29l-4068.46 -3591.9 -2638.86 5978.58 4068.46 3591.9 2638.86 -5978.58zm21.23 -7.55l-2655.57 6016.41 -4094.21 -3614.63 2655.57 -6016.41 4094.21 3614.63z"/>
     <path id="_239" class="fil110" d="M5769.78 1211.25l-4085.62 -3607.05 -2650 6003.81 4085.62 3607.05 2650 -6003.81zm21.23 -7.55l-2666.7 6041.64 -4111.38 -3629.78 2666.7 -6041.64 4111.38 3629.78z"/>
     <path id="_240" class="fil110" d="M5783.93 1206.22l-4102.79 -3622.21 -2661.13 6029.03 4102.79 3622.21 2661.13 -6029.03zm21.23 -7.56l-2677.84 6066.88 -4128.54 -3644.94 2677.84 -6066.88 4128.54 3644.94z"/>
     <path id="_241" class="fil110" d="M5798.08 1201.18l-4119.95 -3637.36 -2672.27 6054.26 4119.95 3637.36 2672.27 -6054.26zm21.23 -7.55l-2688.97 6092.1 -4145.71 -3660.1 2688.97 -6092.1 4145.71 3660.1z"/>
     <path id="_242" class="fil111" d="M5812.24 1196.15l-4137.13 -3652.52 -2683.41 6079.48 4137.13 3652.52 2683.41 -6079.48zm21.22 -7.56l-2700.11 6117.33 -4162.87 -3675.25 2700.11 -6117.33 4162.87 3675.25z"/>
     <path id="_243" class="fil112" d="M5826.39 1191.11l-4154.3 -3667.67 -2694.54 6104.71 4154.3 3667.67 2694.54 -6104.71zm21.22 -7.55l-2711.24 6142.55 -4180.04 -3690.41 2711.24 -6142.55 4180.04 3690.41z"/>
     <path id="_244" class="fil112" d="M5840.54 1186.08l-4171.46 -3682.83 -2705.68 6129.93 4171.46 3682.83 2705.68 -6129.93zm21.22 -7.56l-2722.37 6167.78 -4197.21 -3705.56 2722.37 -6167.78 4197.21 3705.56z"/>
     <path id="_245" class="fil113" d="M5854.69 1181.04l-4188.63 -3697.98 -2716.81 6155.16 4188.63 3697.98 2716.81 -6155.16zm21.22 -7.55l-2733.51 6193 -4214.37 -3720.72 2733.51 -6193 4214.37 3720.72z"/>
     <path id="_246" class="fil113" d="M5868.84 1176.01l-4205.79 -3713.14 -2727.95 6180.38 4205.79 3713.14 2727.95 -6180.38zm21.22 -7.56l-2744.64 6218.23 -4231.54 -3735.87 2744.64 -6218.23 4231.54 3735.87z"/>
     <path id="_247" class="fil114" d="M5882.99 1170.97l-4222.96 -3728.3 -2739.08 6205.62 4222.96 3728.3 2739.08 -6205.62zm21.22 -7.55l-2755.78 6243.45 -4248.7 -3751.03 2755.78 -6243.45 4248.7 3751.03z"/>
     <path id="_248" class="fil115" d="M5897.14 1165.94l-4240.13 -3743.46 -2750.21 6230.84 4240.13 3743.46 2750.21 -6230.84zm21.22 -7.56l-2766.91 6268.68 -4265.87 -3766.18 2766.91 -6268.68 4265.87 3766.18z"/>
     <path id="_249" class="fil115" d="M5911.29 1160.9l-4257.29 -3758.61 -2761.35 6256.07 4257.29 3758.61 2761.35 -6256.07zm21.22 -7.55l-2778.04 6293.9 -4283.04 -3781.34 2778.04 -6293.9 4283.04 3781.34z"/>
     <path id="_250" class="fil116" d="M5925.44 1155.87l-4274.46 -3773.77 -2772.48 6281.29 4274.46 3773.77 2772.48 -6281.29zm21.22 -7.56l-2789.18 6319.13 -4300.2 -3796.49 2789.18 -6319.13 4300.2 3796.49z"/>
     <path id="_251" class="fil116" d="M5939.59 1150.83l-4291.63 -3788.92 -2783.61 6306.52 4291.63 3788.92 2783.61 -6306.52zm21.23 -7.55l-2800.32 6344.36 -4317.38 -3811.66 2800.32 -6344.36 4317.38 3811.66z"/>
     <path id="_252" class="fil116" d="M5953.74 1145.8l-4308.79 -3804.08 -2794.75 6331.74 4308.79 3804.08 2794.75 -6331.74zm21.23 -7.56l-2811.45 6369.59 -4334.55 -3826.81 2811.45 -6369.59 4334.55 3826.81z"/>
     <path id="_253" class="fil117" d="M5967.89 1140.76l-4325.96 -3819.23 -2805.88 6356.97 4325.96 3819.23 2805.88 -6356.97zm21.23 -7.55l-2822.59 6394.81 -4351.71 -3841.97 2822.59 -6394.81 4351.71 3841.97z"/>
     <path id="_254" class="fil118" d="M5982.04 1135.72l-4343.12 -3834.38 -2817.02 6382.2 4343.12 3834.38 2817.02 -6382.2zm21.23 -7.55l-2833.72 6420.04 -4368.88 -3857.12 2833.72 -6420.04 4368.88 3857.12z"/>
     <path id="_255" class="fil0" d="M5996.19 1130.69l-4360.29 -3849.54 -2828.15 6407.42 4360.29 3849.54 2828.15 -6407.42zm21.23 -7.55l-2844.86 6445.26 -4386.04 -3872.28 2844.86 -6445.26 4386.04 3872.28z"/>
     <path id="_256" class="fil0" d="M6010.34 1125.65l-4377.46 -3864.69 -2839.28 6432.65 4377.46 3864.69 2839.28 -6432.65zm14.15 -5.03l-2850.42 6457.87 -4394.62 -3879.85 2850.42 -6457.87 4394.62 3879.85z"/>
    </g>
   </g>
   <g>
    <path class="fil119" d="M1789.35 3070.59c8.58,13.24 172.37,102.52 181.92,107.53 192.37,100.96 419.3,185.32 638.16,227.41 309.4,59.5 642.72,66.16 936.12,-67.1 8.65,-3.93 16.26,-7.53 24.53,-11.77 4.25,-2.17 7.04,-3.88 11.23,-6.08l12.31 -7.52c-0.29,-0.35 -0.8,-1.3 -0.97,-0.99l-84.24 -54.36c-28.42,-18.76 -56.1,-36.84 -85.17,-54.84 -85.17,-52.75 -169.41,-109.13 -256.81,-164.57l-213.52 -137.23c-57.43,-37.1 -31.32,-32.11 -84.88,-3.82 -14.49,7.65 -28.55,14.85 -44.3,21.46 -71.8,30.12 -129.05,42.66 -207.47,51.81 -42.73,4.99 -81.96,3.14 -125.38,3.69 -3.65,5.13 -4.21,11.28 -5.86,18.49 -1.79,7.83 -3.23,13.4 -4.96,21.15l-58.88 252.06c-2.49,10.65 -4.68,35.08 -17.72,32.57 -10.38,-1.99 -11.46,-26.54 -13.88,-37.74 -3.21,-14.84 -6.12,-28.08 -9.28,-42.77 -18.3,-84.94 -38.73,-170.66 -55.54,-255.26 -2.95,-14.89 -0.88,-10.17 -32.01,-18.04 -65.35,-16.52 -131.06,-39.27 -191.18,-67.77 -16.21,-7.69 -12.74,-6.91 -33.1,6.92 -10.67,7.25 -20.38,13.62 -30.91,20.89l-185.84 125.01c-21.26,13.95 -42.82,29.36 -62.37,40.87zm665.74 -1035.98c7.62,-3.14 123.76,-82.12 126.84,-86.07 -21.88,-13.73 -125.06,-46 -153.27,-51.66 0.1,14.97 21.55,118.47 26.43,137.73zm-163.88 110.42c7.24,-2.41 37.08,-23.92 46.42,-30.22 16.22,-10.93 31.11,-23.04 46.54,-31.06l-1.87 -252.06c-13.48,36.96 -64.85,236.76 -81.58,297.84 -4.08,14.9 -6.17,9.29 -9.51,15.5zm461.36 215.33l522.85 46.67c-4.92,-3.61 -6.71,-3.05 -15.47,-4.57l-465.09 -82.01c-6.92,0.44 -40.05,35.8 -42.29,39.91zm58.07 -57.73c4.54,2.77 193.71,36.65 210.54,37.89 -4.54,-17.3 -33.42,-63.64 -43.54,-78.85 -9.96,-14.98 -42.85,-61.41 -53.22,-69 -4.08,1.71 -109.99,105.01 -113.78,109.96zm-691.07 549.26c37.76,19.34 152.93,61.83 194.56,66.28l-36.82 -173.18c-7.5,1.98 -100.32,65.69 -118.97,78.37 -7.61,5.17 -36.59,21.73 -38.77,28.53zm-38.52 -531.2l-666.48 -58.65c10.32,7.05 69.97,17.43 86.9,21.22l444.98 99.31c14.03,3.13 29.35,6.28 43.58,9.69 18.84,4.53 15.12,-0.35 34.4,-17.17 9.59,-8.35 18.09,-16.82 27.97,-25.56 7.2,-6.37 24.85,-20.56 28.65,-28.84zm705.69 163.27l123.43 97.19c23.15,17.24 40.84,32.07 62.15,48.4 12.8,9.81 55.89,45.67 64.37,48.87l5.99 -10.39c11.36,-30.12 17.89,-54.02 22.06,-87.01 5.23,-41.36 2.37,-75.11 -2.95,-114.97l-275.05 17.91zm-1118.6 -270.99l351.42 -10.11c-5.06,-8.16 -181.92,-145.92 -208.98,-168.2 -8.04,-6.63 -25.14,-20.96 -31.32,-23.73 -18.78,11.05 -57.24,64.69 -69.59,85.74 -13.92,23.74 -41.19,84.26 -41.53,116.3zm115.24 382.2c6.94,-2.34 9.41,-5.85 13.96,-10.18 4.44,-4.21 8.6,-8.15 12.56,-11.64l170.71 -157.56c2.85,-3.73 1.07,-0.46 3.42,-5.59l-317.1 -70.46c5.21,64.51 44.84,148.21 78.31,200.8 13.94,21.91 28.1,39.11 38.14,54.63zm625.55 75.36l3.12 319.54c2.47,63.41 1.32,147.69 1.92,213.07 1.68,-1.56 1.49,-0.9 2.77,-3.61 1.14,-2.43 0.58,-0.94 1.47,-4l63.7 -273.01c10.55,-46.54 21.39,-93.1 32.73,-140.38l24.59 -104.66c2.53,-10.91 7.77,-26.96 8.88,-36.65 -13.29,-5.72 -45.96,-30.73 -60.68,-38.02l-85.56 57.09c-1.66,2.44 -1.46,-4.29 -1.49,3.97 -0.03,7.48 4.83,4.6 8.55,6.66zm-460.07 -760.35c12.41,7.53 27.19,18.49 40.25,27.16l123.87 83.36c28.53,18.9 54.63,37.05 82.45,55.8l84.67 53.35c0.38,-0.69 1.5,-2.81 1.83,-3.65l32.29 -119.52c5.64,-20.9 33.35,-113.06 33.05,-126.93 -16.61,-1.71 -31.61,-4.91 -48.2,-6.56 -92.49,-9.2 -171.58,-8.41 -263.16,10.78 -17.71,3.72 -77.88,18.11 -87.05,26.21zm547.65 1033.61c107.55,4.16 209.93,-9.95 305.34,-48.54 19.33,-7.81 63.21,-27.44 77.55,-39.91l-8.63 -6.78c-4.3,-2.54 -5.65,-3.49 -9.39,-6.06 -41.54,-28.54 -93.85,-59.18 -137.85,-88.56l-158.38 -100.63 -68.64 290.48zm-1103.46 -1409.13c10.95,8.92 24.79,17.44 36.83,25.82 10.51,7.3 9.95,5.01 20.55,-1.15 29.82,-17.35 78.63,-38.41 111.63,-50.79 207.7,-77.91 467.77,-86.48 685.72,-57.51 147.71,19.63 285.3,52.27 418.62,95.84 99.72,32.6 183.57,67.6 276.34,110.54 49.19,22.77 34.05,25.53 63.21,6.6 6.22,-4.03 15.23,-9.13 18.72,-14.52 -233.55,-117.66 -482.86,-207.9 -774.96,-246.02 -257.3,-33.57 -534.37,-18.49 -772.57,87.4 -22.17,9.85 -66.7,30.44 -84.09,43.79zm1264.1 968.33c6.73,7.32 467.44,339.87 488.89,355.19 199.72,142.72 399.83,291.55 598.89,434.07l272.46 197.38c88.21,65.67 184,130.99 272.29,197.37l109.47 78.37c-21.82,-19.6 -78.67,-61.34 -106.05,-83.39 -33.61,-27.04 -73.86,-57.65 -107.79,-83.93l-858.54 -668.34c-69.13,-53.99 -145.52,-112.12 -214.6,-167.13 -125.69,-100.08 -252.66,-193.22 -375.87,-292.57 -13.14,-10.59 -41.42,-30.97 -51.88,-41.44l-1.82 -1.74c-2.02,1.63 -5.75,4.12 -7.1,5.26 -4.92,4.16 -3.59,-1.49 -3.92,8.53 -0.3,9.03 1.07,15.15 -0.22,25.36 -2.11,16.63 -12.77,28.26 -14.21,37.01zm-523.33 -227.38c5.29,-7.25 10.99,-10.81 17.62,-17.09 12.64,-11.96 6.09,-31.25 30.75,-57.35l8.51 -10.81c-5.54,-5.66 -19.26,-15.02 -25.82,-19.5l-80.27 -57.87c-16.08,-12.38 -35.7,-26.67 -52.9,-38.64 -85.31,-59.35 -182.78,-135.04 -268.47,-194.42 -34.23,-23.72 -71.38,-52.98 -107.13,-77.69 -36.26,-25.06 -72.16,-52.47 -107.13,-77.74l-1017.6 -737.2c-17.53,-12.87 -36.06,-27.17 -53.55,-38.18 6.46,2.85 41.51,32.83 50.19,39.8l363.32 289.51c142.07,112.36 275.07,219.43 415.48,330.75l415.32 330.85c67.98,55 137.71,108.66 207.76,165.3l116.35 92.66c6.15,4.6 8.38,3.68 14.19,10.06 11.95,13.15 64.67,48.98 69.1,58.36l3.43 7.82c0.2,0.36 0.49,0.97 0.85,1.38zm-572.09 949.36c9.91,12.71 84.39,56.76 104.86,69.5 87.83,54.69 139.19,80.18 227.51,124.89 39.32,19.9 81.2,37.41 121.73,54.48 168.63,71 353.69,124.48 549.78,154.5 214.67,32.87 437.9,29.66 644.4,-20.93 47.22,-11.56 89.02,-27.73 135.39,-40.76 96.91,-27.22 166.56,-71.26 240.92,-132.28 4.16,-3.41 7.96,-6.87 12.23,-10.24 20.29,-15.99 38.21,-35.29 57.58,-52.96 4.61,-4.2 7.88,-6.83 9.84,-13.8 -16.72,-6.01 -38.42,-27.81 -56.1,-33.86 -4.76,7.1 -13.14,15.12 -19.24,21.87 -18.43,20.41 -45.31,44.72 -67.4,62.08 -104.93,82.4 -224.07,132.59 -355.82,162.22 -382.5,86.01 -812.53,-2.86 -1162.76,-152.24 -82.96,-35.39 -155.38,-73.53 -230.68,-114.7 -66.85,-36.54 -100.34,-60.81 -158.88,-100.17 -15.58,-10.47 -13.62,-4.58 -28.16,4.49 -6.01,3.76 -21.08,13.16 -25.2,17.91zm-30.9 -1597.47l384.33 259.47c5.08,1.61 44.33,-13.53 53.85,-16.56 78.93,-25.16 169.09,-34.48 254.15,-32.52 32.54,0.74 129.89,12.14 133,11.95l23.07 -83.63c2.91,-13.61 1.17,-21.12 16.78,-19.79 7.16,10.61 4.02,14.3 6.31,28.1 1.76,10.64 3.92,19.98 6.03,30.41 15.37,76.08 -1.76,53.06 65.41,72.84 40.56,11.94 86.26,27.76 124.47,44.51 12.19,5.35 12.81,8.05 23.94,0.38 27.51,-18.96 54.96,-37.09 81.36,-55.09 15.77,-10.74 73.93,-47.98 81.71,-55.48 -3.68,-3.95 -9.85,-6.28 -14.79,-8.47 -182.06,-80.97 -353.41,-140.8 -554.48,-177.81 -191.11,-35.18 -411.54,-49.3 -606.32,-14.48 -21.96,3.92 -59.78,9.47 -78.82,16.17zm-1354.71 2504.67c9.34,-3.57 134.56,-89.73 146.65,-97.54 50.17,-32.4 94.78,-64.48 146.75,-98.51 96.38,-63.1 195.01,-130.81 292.3,-196.49 197.26,-133.17 388.63,-260.55 585.45,-394.02l255.14 -171.39c6.18,-4.2 12.17,-8.14 18.67,-12.4 6.21,-4.07 11.13,-8.72 17.82,-13.24 24.62,-16.65 49.18,-31.78 72.92,-48.01l146.64 -98.67c25.96,-17.7 49.58,-33.56 73.39,-49.25 144.4,-95.15 293.82,-198.27 438.9,-295.19 24.92,-16.65 47.52,-31.52 73.33,-49.3 13.43,-9.25 65.41,-42.47 72.54,-49.74 -10.51,-2.61 -43.25,-3.37 -74.67,-12 -43.89,-12.04 -82.06,-28.72 -121.57,-52.56l-52.31 -35.71c-10.83,6.44 -350.65,279.88 -392.04,312.59 -45.07,35.62 -84.56,68.93 -131.36,105.29 -43.57,33.85 -84.49,67.11 -130.44,104.44 -42.44,34.48 -88.28,69.17 -130.67,104.29 -22.93,19 -43.42,34.39 -65.21,52.22l-457.74 366.22c-87.63,70.88 -174.34,139.99 -261.99,209.48l-514.37 411.38c-4.65,3.69 -5.47,3.93 -8.13,8.11zm3100.1 -2282.08l71.62 53.31c23.89,18.95 109.89,86.89 135.13,113.57 5.31,5.6 10.63,9.39 16.48,14.63l108.11 111.21c5.59,5.78 7.53,9.49 14.49,16.6 40.69,41.55 116.03,153.77 143.26,200.47 59.7,102.41 113.91,236.34 120.95,377.93 6.2,124.97 -25.21,243.56 -94.11,342.74 -6.92,9.96 -20.28,29.25 -27.53,35.23 46.79,-224.34 -20.02,-410.16 -132.61,-600.05 -19.74,-33.29 -60.55,-92.35 -84.55,-121.05 -7.34,-8.78 -15.21,-18.5 -22.17,-27.93 -3.68,-5 -7.87,-9.57 -11.84,-14.06l-149.24 -158.27 -124.95 -106.51c-10.92,-8.86 -106.89,-81.45 -119.66,-86.21l-129.83 126.19c-6.32,5.97 -39.34,35.99 -42.75,43.47l40.8 52.38c19.53,26.99 38.43,57.85 53.51,88.06 22.39,44.82 6.17,33.68 53.21,42.01 13.74,2.43 26.62,4.58 41.01,7.24 53.64,9.9 107.17,18.87 161.21,28.55 27.76,4.97 53.34,9.4 80.9,14.24 13.64,2.39 26.56,4.79 39.55,6.97 17.45,2.91 26.7,3.55 23.2,24.71 -12.06,8.81 -62.71,9.78 -82.49,10.56 -29.23,1.17 -59.42,3.9 -88.28,5.79 -44.84,2.94 -139.19,7.26 -177.22,11.99 0.43,22.58 5.24,45.73 5.21,71.94 -0.04,30.67 -3.55,61.47 -10.13,88.71 -3.44,14.28 -6.7,26.31 -11.14,38.98 -2.85,8.15 -12.68,29.79 -13.31,36.4 13.81,12.79 153.02,119.35 173.39,135.34l477.57 372.23c3.73,2.91 7.21,6.02 10.75,8.37l6.21 3.97c0.26,0.22 0.62,0.58 0.88,0.81 5.55,5.16 19.46,18.04 26.83,19.95 19.47,-21.56 101.62,-174.33 115.58,-200.68 18.86,-35.6 32.95,-72.71 40.67,-118.1 9.56,-56.3 17.05,-86.3 17.05,-147.62 0,-224.22 -113.36,-432.54 -242.43,-595.82 -8.31,-10.52 -14.63,-17.9 -22.57,-27.53l-92.77 -104.19c-35.37,-35.88 -113.97,-107.73 -156.21,-140.84 -18.52,-14.5 -97.25,-78.65 -113.48,-84.55 -4.6,4.63 -9.05,8.44 -14.05,13.23 -6.34,6.07 -11.69,9.68 -14.25,15.63zm-1958.14 1176c4.55,-1.9 31.48,-27.04 35.74,-32.57 -2.49,-4.86 -84.59,-86.09 -100.94,-107.5 -28.61,-37.48 -63.03,-73.26 -93.44,-117.26 -54.55,-78.93 -108.8,-169.37 -143.44,-276.2 -36.73,-113.29 -52.18,-242.26 -21.48,-365.05 6.57,-26.3 14.05,-57.27 22.75,-80.81 4.21,-11.39 11.49,-26.97 14.61,-37.42 4.11,-13.72 6.96,-28.4 12.01,-41.34 19.64,-50.29 50.7,-87.82 73.08,-136.73l-12.86 10.46c6.6,-15.8 29.66,-42.48 40.88,-57.03 -7.03,21.08 -20.3,45.23 -28.44,67.74 -31.54,87.23 -40.07,157.65 -35.8,253.54 5.01,112.28 43.26,215.86 84.59,306.17 42.99,93.96 124.5,215.39 193.23,293.93 8.12,9.28 15.25,16.42 22.69,25.69l36.06 38.22c9.46,10.44 79.56,81.07 87.3,84.4l192.88 -177.49c11.16,-10.1 22.28,-20.06 32.48,-29.72 12.48,-11.8 22.32,-19.31 31.67,-30.14 -3.48,-7.88 -16.2,-22.4 -20.9,-28.93 -44.76,-62.22 -80.49,-135.37 -97.91,-211.07 -2.42,-10.54 -4.74,-36.01 -8.71,-43.22 -7.66,-5.44 -158.82,-36.82 -182.39,-41.98 -20.89,-4.57 -201.19,-42.77 -204.98,-47.71 -6.68,-8.73 0.75,-14.38 10.84,-14.67 16.65,-0.49 9.01,-4.01 21.02,-5.21l303.79 -8.61c78.2,-1.61 42.95,9.47 71.41,-69.52 7.63,-21.18 16.4,-39.59 26.28,-58.18 21.1,-39.69 47.72,-67.59 74.4,-96.16 -2.19,-4.93 -224.99,-180.73 -247.84,-198.94l-123.85 -98.96c-4.48,-3.74 -11.4,-10.16 -15.27,-12.51 -6.9,-4.21 -12.01,0.35 -19.53,3.52l-76.22 35.99c-12.9,6.54 -25.01,14.93 -36.34,19.77 29.39,-42.04 83.61,-90.03 86.5,-94.32 -2.83,-3.96 -4.18,-4.45 -9.22,-8.46 -32.99,-26.27 -26.49,-34.37 -70.54,1.63 -20.45,16.72 -72.92,65.16 -88.97,85.5 -3.43,4.36 -3.93,5.18 -8.01,9.29 -26.73,26.94 -74.9,98.54 -94.69,131.65 -26.1,43.66 -68.17,142.56 -86.52,191.51 -27.3,72.81 -40.44,156.46 -35.65,242.87 8.16,147.42 64.99,297.67 139.99,417.84 8.93,14.31 17.51,27.58 26.78,42.37 23.52,37.54 75.86,108.93 103.65,139.89l32 37.15c14.89,16.78 76.15,80.15 87.31,88.58z"/>
    <path class="fil120" d="M2163.15 2305.43c21.69,1.37 40.18,4.83 60.25,8.99 44.93,9.31 87.48,27.12 126.83,49.32 35.72,20.15 12.33,19.52 77.9,-29.49 45.73,-34.18 116.04,-92.53 162.35,-129.54 18.39,-14.7 35.3,-28.33 53.21,-43.56 18.14,-15.43 34.25,-25.64 54.14,-42.55 24.76,-21.04 51.73,-40.72 80.06,-65.04l28.46 -21.64c35.6,-29.38 72.44,-56.92 107.6,-85.8 69.24,-56.84 149.8,-117.55 216.63,-173.7 32.88,-27.62 79.45,-60.95 108.44,-86.81 18.84,-16.82 82.57,-65.75 107.66,-85.78l379.07 -303.19c17.44,-13.97 36.56,-28.67 53.8,-42.94 86.92,-71.94 181.52,-145.1 270.51,-216.51 18.02,-14.46 37.33,-30.45 53.9,-43.67l-120.49 80.65c-97.13,65.89 -206.83,141.88 -304.13,205.45 -19.2,12.55 -41.89,27.64 -60.67,41.24 -37.67,27.28 -81.38,54.42 -120.79,81.36 -161.22,110.24 -324.05,216.94 -485.55,327.9 -120.3,82.65 -243.5,163.34 -365.01,246.41l-303.03 204.75c-10.59,7.04 -20.26,13.6 -29.76,20.41 -30,21.51 -146.21,95.62 -151.38,103.74z"/>
   </g>
  </g>
 </g>
</svg>
