<?xml version="1.0" encoding="UTF-8"?>
<!DOCTYPE svg PUBLIC "-//W3C//DTD SVG 1.1//EN" "http://www.w3.org/Graphics/SVG/1.1/DTD/svg11.dtd">
<!-- Creator: CorelDRAW -->
<svg xmlns="http://www.w3.org/2000/svg" xml:space="preserve" width="89.526mm" height="67.641mm" version="1.1" style="shape-rendering:geometricPrecision; text-rendering:geometricPrecision; image-rendering:optimizeQuality; fill-rule:evenodd; clip-rule:evenodd"
viewBox="0 0 8952.6 6764.1"
 xmlns:xlink="http://www.w3.org/1999/xlink"
 xmlns:xodm="http://www.corel.com/coreldraw/odm/2003">
 <defs>
  <style type="text/css">
   <![CDATA[
    .fil1 {fill:#A02B2D}
    .fil0 {fill:#FEFEFE}
   ]]>
  </style>
 </defs>
 <g id="Camada_x0020_1">
  <metadata id="CorelCorpID_0Corel-Layer"/>
  <g id="_2204421308512">
   <path class="fil0" d="M3858.05 4833.54c216.14,103.32 448.48,195.36 684.51,268.57l336.43 14.22c23.82,0 40.84,13.62 40.84,27.22l0 23.81c0,11.51 -0.27,22.87 -0.67,34.18 29.65,6.41 59.27,12.48 88.82,18.16 61.59,11.84 123.65,22.66 186.04,32.3l275.83 -1043.24c-6.82,3.1 -13.76,6.14 -20.87,9.12 -147.76,61.97 -265.58,87.78 -426.95,106.62 -87.94,10.27 -168.66,6.45 -258.02,7.6 -7.51,10.55 -8.67,23.2 -12.07,38.04 -3.68,16.11 -6.64,27.59 -10.19,43.52l-121.17 518.73c-5.14,21.91 -9.64,72.18 -36.46,67.02 -21.38,-4.1 -23.6,-54.61 -28.58,-77.67 -6.6,-30.53 -12.59,-57.77 -19.1,-88 -37.39,-173.61 -79.11,-348.78 -113.56,-521.72l-27.13 1.15c-27.22,0 -40.84,-10.2 -40.84,-37.42l0 -4.79c-134.04,-33.96 -268.76,-80.66 -392.06,-139.12 -33.35,-15.83 -26.23,-14.21 -68.13,14.25 -10.67,7.25 -20.88,14.07 -31.04,20.9 -3.72,19.34 -5.63,39.76 -5.63,61.1l0 605.45zm2901.81 318.73c58.86,-21.05 117.09,-44.53 174.57,-70.64 17.8,-8.09 33.44,-15.49 50.47,-24.22 8.75,-4.48 14.47,-8 23.11,-12.53l25.33 -15.46c-0.61,-0.74 -1.66,-2.69 -1.99,-2.05l-173.37 -111.85c-58.49,-38.61 -115.45,-75.82 -175.26,-112.86l-18.31 -11.38 95.45 360.99zm-726.28 -765.82l-68.17 -43.81 -174.37 746.45c-3.4,13.62 6.8,20.42 17.02,20.42l364.13 0c10.2,0 20.42,-3.4 17.02,-17l-155.63 -706.06zm-1343.21 -1987.96c15.68,-6.47 254.68,-168.99 261.01,-177.12 -45.04,-28.25 -257.36,-94.67 -315.4,-106.31 0.19,30.8 44.33,243.79 54.39,283.43zm-337.27 227.24c14.91,-4.96 76.31,-49.24 95.53,-62.19 33.39,-22.51 64.04,-47.42 95.79,-63.92l-3.85 -518.71c-27.75,76.04 -133.47,487.21 -167.9,612.93 -8.39,30.64 -12.7,19.11 -19.57,31.89zm949.44 443.12l1075.97 96.05c-10.12,-7.44 -13.8,-6.29 -31.84,-9.4l-957.11 -168.79c-14.23,0.91 -82.41,73.68 -87.02,82.14zm119.5 -118.81c9.34,5.7 398.65,75.43 433.28,77.99 -9.35,-35.62 -68.79,-130.98 -89.6,-162.27 -20.51,-30.84 -88.2,-126.38 -109.53,-142 -8.4,3.53 -226.35,216.1 -234.15,226.28zm-1422.15 1130.33c66.43,34.03 249.25,102.86 354.45,127.84 -7.31,-126.87 -84.8,-217.26 -202.98,-235.39 -32.23,21.87 -59.56,40.59 -71.69,48.83 -15.64,10.65 -75.3,44.74 -79.78,58.72zm-79.28 -1093.16l-1371.54 -120.68c21.25,14.49 143.99,35.86 178.83,43.66l915.74 204.37c28.86,6.43 60.39,12.91 89.67,19.94 38.77,9.32 31.11,-0.73 70.8,-35.33 19.73,-17.2 37.22,-34.61 57.56,-52.61 14.79,-13.11 51.14,-42.31 58.94,-59.35zm1452.24 335.99l254.02 200.01c7.21,5.38 14.16,10.63 20.92,15.81 8.18,-17.8 23.77,-25.59 44.56,-25.59l253.75 0c9.16,-80.82 3.31,-148.14 -7.21,-227.08l-566.04 36.85zm-2301.96 -557.67l723.2 -20.79c-10.41,-16.8 -374.38,-300.3 -430.06,-346.14 -16.55,-13.64 -51.75,-43.13 -64.47,-48.83 -38.64,22.73 -117.8,133.13 -143.2,176.45 -28.64,48.85 -84.77,173.38 -85.47,239.31zm237.16 786.54c14.28,-4.83 19.36,-12.04 28.73,-20.94 9.14,-8.68 17.7,-16.79 25.85,-23.96l351.31 -324.24c5.86,-7.69 2.19,-0.96 7.02,-11.52l-652.55 -144.98c10.71,132.75 92.26,304.98 161.14,413.23 28.69,45.08 57.84,80.46 78.5,112.41zm1293.15 752.42l0.6 60.24c5.07,130.49 2.69,303.93 3.94,438.48 3.46,-3.21 3.07,-1.85 5.69,-7.44 2.36,-4.98 1.19,-1.94 3.03,-8.23l113.98 -488.42 -127.24 5.37zm229.56 -443.65l32.74 -139.38c5.22,-22.45 15.99,-55.49 18.28,-75.43 -27.35,-11.75 -94.58,-63.25 -124.88,-78.23l-114.81 76.61c78.44,58.05 142.15,130.87 188.67,216.43zm-1182.17 -1718.43c25.54,15.52 55.96,38.05 82.82,55.9l254.91 171.56c58.73,38.88 112.44,76.23 169.67,114.84l174.24 109.78c0.8,-1.42 3.11,-5.79 3.78,-7.51l66.45 -245.96c11.6,-43.03 68.62,-232.69 68.01,-261.23 -34.16,-3.52 -65.04,-10.09 -99.2,-13.48 -190.31,-18.94 -353.09,-17.32 -541.54,22.19 -36.43,7.64 -160.27,37.26 -179.14,53.91zm1266.36 2127.33c170.69,-6.28 334.31,-37.56 489.01,-100.13 20.49,-8.29 54.41,-23.03 86.52,-38.89l21.09 -79.79c-82.87,-55.82 -183.42,-115.13 -268.8,-172.13l-325.91 -207.08 -58.29 246.66c39.94,93.31 61.26,199.53 61.26,316.54l0 13.6c0,7.6 -1.74,14.85 -4.88,21.22zm-2410.17 -2900.1c22.54,18.36 51.02,35.89 75.81,53.14 21.61,15.03 20.46,10.32 42.27,-2.37 61.38,-35.7 161.83,-79.05 229.73,-104.52 427.42,-160.32 962.63,-177.96 1411.15,-118.36 303.96,40.4 587.11,107.57 861.47,197.25 205.22,67.08 377.78,139.1 568.69,227.47 101.22,46.86 70.06,52.53 130.07,13.59 12.8,-8.3 31.35,-18.8 38.53,-29.88 -480.62,-242.14 -993.68,-427.85 -1594.8,-506.29 -529.48,-69.09 -1099.68,-38.05 -1589.88,179.85 -45.61,20.28 -137.25,62.65 -173.04,90.12zm2601.39 1992.72c6.94,7.54 247.84,182.7 492.34,359.77l37.29 -141.04c-123.27,-94.58 -245.89,-189.14 -366.75,-286.59 -27.03,-21.8 -85.24,-63.72 -106.76,-85.28l-3.73 -3.58c-4.15,3.35 -11.85,8.48 -14.62,10.83 -10.12,8.56 -7.39,-3.06 -8.07,17.56 -0.61,18.57 2.21,31.17 -0.46,52.17 -4.34,34.23 -26.27,58.16 -29.24,76.16zm1460.54 1059.42c195.37,142.3 390.67,285.31 585.59,426.29l0 -87.45 -624.55 -486.18 38.96 147.34zm1150.52 834.68l188.19 136.32c181.52,135.15 378.65,269.56 560.33,406.17l225.3 161.27c-44.93,-40.33 -161.9,-126.23 -218.26,-171.6 -69.15,-55.66 -151.99,-118.64 -221.81,-172.74l-533.75 -415.49 0 56.07zm-3688.01 -2362.02c10.88,-14.92 22.62,-22.24 36.25,-35.16 26.02,-24.61 12.53,-64.31 63.28,-118.03l17.52 -22.26c-11.41,-11.63 -39.63,-30.9 -53.12,-40.11l-165.2 -119.09c-33.09,-25.48 -73.47,-54.88 -108.87,-79.51 -175.55,-122.14 -376.14,-277.89 -552.48,-400.1 -70.45,-48.83 -146.89,-109.04 -220.46,-159.88 -74.61,-51.57 -148.5,-107.98 -220.47,-159.98l-2094.12 -1517.09c-36.07,-26.49 -74.19,-55.91 -110.19,-78.57 13.3,5.87 85.43,67.57 103.28,81.92l747.69 595.76c292.35,231.24 566.05,451.58 855,680.65l854.69 680.88c139.89,113.18 283.4,223.6 427.56,340.15l239.43 190.69c12.65,9.47 17.24,7.58 29.19,20.72 24.61,27.05 133.09,100.79 142.22,120.09l7.05 16.07c0.4,0.76 1.01,2.02 1.75,2.85zm-987.93 2080.53c10.84,6.61 19.94,12.17 26.41,16.19 86.88,54.1 156.43,94.31 225.41,131.71l0 -112.25 -4.44 -2.44c-104.52,-57.12 -169.4,-99.7 -247.38,-152.37l0 119.16zm1716.93 676.11c52.77,9.89 105.96,18.95 159.56,27.15 52.46,8.04 105.16,15.01 158.02,20.91l25.1 -94.96c-94.2,-10.34 -188.2,-24.04 -281.6,-40.79 -18.11,30.99 -38.49,60.26 -61.08,87.69zm889.52 67.8c202.58,-9.21 402.94,-36.39 596.18,-83.72 20.78,-5.1 41.06,-10.62 61.02,-16.42l-13.64 -60c-3.4,-10.2 -6.8,-13.63 -17.02,-13.63l-65.66 0c-17.35,4.31 -34.8,8.44 -52.37,12.39 -158.67,35.69 -321.31,56.73 -485.78,65.09l-22.73 96.29zm1181.95 -302.5c64.29,-39.87 125.64,-85.63 188.62,-137.31 8.58,-7.04 16.38,-14.16 25.17,-21.08 38.36,-30.24 72.6,-66.21 108.82,-100.06l0 -53.3c-28.12,-18.39 -59.01,-44.64 -85.52,-53.7 -9.8,14.59 -27.04,31.1 -39.58,45 -37.93,42 -93.26,92.03 -138.73,127.75 -30.1,23.64 -60.77,45.99 -91.99,67.11l33.21 125.59zm-2607.45 -1.75c-117.65,-37.39 -232.73,-78.76 -344.37,-123.25 35.93,91.15 118.45,148.25 228.6,148.25 43.23,0 82.2,-8.81 115.77,-25zm-1433.9 -3853.93l790.9 533.96c10.44,3.32 91.23,-27.84 110.81,-34.08 162.43,-51.77 347.98,-70.94 523.02,-66.92 66.96,1.54 267.3,24.98 273.69,24.58l47.48 -172.09c5.99,-28.01 2.4,-43.46 34.53,-40.73 14.75,21.85 8.27,29.44 12.99,57.83 3.63,21.89 8.07,41.12 12.41,62.58 31.62,156.57 -3.62,109.2 134.61,149.9 83.47,24.58 177.51,57.13 256.16,91.61 25.07,10.99 26.35,16.55 49.26,0.77 56.6,-39.02 113.1,-76.33 167.42,-113.36 32.45,-22.13 152.14,-98.75 168.15,-114.19 -7.56,-8.12 -20.27,-12.91 -30.42,-17.43 -374.68,-166.62 -727.3,-289.74 -1141.08,-365.92 -393.27,-72.39 -846.91,-101.43 -1247.73,-29.79 -45.2,8.08 -123.04,19.5 -162.2,33.28zm-2787.88 5154.36c19.22,-7.35 276.92,-184.65 301.81,-200.72 103.24,-66.68 195.03,-132.71 302,-202.74 198.32,-129.85 401.29,-269.18 601.51,-404.35l17.19 -11.6 -202.07 0 -1003.7 802.72c-9.58,7.6 -11.26,8.08 -16.74,16.69zm2216.29 -1487.56c64.38,-43.45 128.96,-87.11 193.82,-131.1l65.78 -44.19 0 -320.76 -258.64 206.94 0 249.39c0,13.38 -0.33,26.62 -0.96,39.72zm824.54 -556.92c40.38,-26.54 80.47,-51.77 119.5,-78.45l132.32 -89.03 0 -247.76c0,-67.73 6.86,-131.99 20.03,-192.39 -27.36,22 -55.35,44.27 -84.76,67.11 -63.23,49.12 -123.74,97.63 -187.09,148.92l0 391.6zm840.17 -561.51c68.42,-46.05 137.09,-92.5 205.76,-139.01 -97.06,6.08 -170.41,58.17 -205.76,139.01zm725.5 -488.99c19.68,-13.21 39.69,-26.78 60.75,-41.28 27.64,-19.05 134.61,-87.41 149.26,-102.37 -21.63,-5.37 -89,-6.93 -153.66,-24.68 -90.31,-24.78 -168.86,-59.1 -250.17,-108.16l-107.66 -73.5c-9.06,5.4 -130.27,101.81 -276.58,218.78 25.37,-1.72 51.21,-2.66 77.57,-2.66 197.27,0 367.49,47.46 500.49,133.87zm1773.2 -1601.31l147.39 109.7c49.15,39.01 226.13,178.82 278.09,233.71 10.91,11.53 21.88,19.33 33.9,30.11l222.49 228.86c11.49,11.91 15.49,19.55 29.82,34.17 83.73,85.51 238.78,316.44 294.8,412.54 74.74,128.21 145.3,280.42 192.37,445.57l92.43 0c-85.51,-304.64 -255.21,-584.51 -440.7,-819.17 -17.1,-21.64 -30.1,-36.81 -46.44,-56.63l-190.91 -214.41c-72.79,-73.85 -234.54,-221.71 -321.48,-289.84 -38.09,-29.85 -200.13,-161.87 -233.53,-173.99 -9.46,9.52 -18.63,17.35 -28.91,27.21 -13.05,12.49 -24.04,19.92 -29.32,32.17zm803.43 1495.62c-22.55,-41.92 -46.35,-83.8 -71.25,-125.8 -40.62,-68.51 -124.61,-190.05 -173.99,-249.12 -15.11,-18.06 -31.31,-38.07 -45.63,-57.47 -7.58,-10.28 -16.19,-19.69 -24.37,-28.93l-307.12 -325.7 -257.13 -219.18c-22.47,-18.25 -219.97,-167.62 -246.25,-177.44l-267.18 259.7c-13.01,12.3 -80.96,74.07 -87.98,89.45l83.98 107.8c40.19,55.56 79.08,119.06 110.12,181.22 46.07,92.24 12.69,69.31 109.48,86.45 28.28,5 54.78,9.43 84.41,14.89 110.39,20.39 220.54,38.85 331.75,58.77 57.13,10.22 109.76,19.34 166.48,29.3 28.08,4.92 54.67,9.86 81.4,14.33 35.91,6.01 54.95,7.31 47.74,50.85 -24.81,18.15 -129.05,20.14 -169.75,21.75 -60.15,2.4 -122.28,8.02 -181.67,11.91 -92.29,6.04 -286.45,14.93 -364.72,24.69 0.89,46.45 10.8,94.1 10.73,148.04 -0.04,28.01 -1.49,56.08 -4.26,83.53l279.52 0c23.82,0 40.84,10.22 47.64,34.04l175.73 664.6 641.03 499.63 0 -1157.43c0,-20.5 12.61,-35.96 31.29,-39.88zm533.64 577.38c4.52,-30.05 8.05,-59.94 10.16,-93.89 -6.29,2.37 -10.16,8.12 -10.16,15.81l0 78.08zm-5366.73 347.09c9.38,-3.92 64.78,-55.65 73.55,-67.02 -5.12,-10.01 -174.08,-177.18 -207.72,-221.24l-1.96 -2.56c2.19,23.91 3.34,48.33 3.34,73.26l0 85.43c49.12,51.41 116.6,119.89 132.79,132.13zm-511.27 -833.86c-42.09,-82.4 -79.91,-170.17 -110.36,-264.1 -75.59,-233.12 -107.4,-498.53 -44.22,-751.22 13.53,-54.13 28.91,-117.86 46.82,-166.31 8.67,-23.43 23.63,-55.5 30.06,-77 8.45,-28.24 14.32,-58.46 24.72,-85.08 40.41,-103.49 104.34,-180.73 150.39,-281.38l-26.47 21.52c13.58,-32.51 61.05,-87.42 84.14,-117.36 -14.48,43.39 -41.77,93.09 -58.53,139.42 -64.9,179.5 -82.46,324.41 -73.66,521.75 10.29,231.06 89.01,444.22 174.05,630.07 88.49,193.35 256.23,443.25 397.65,604.87 15.19,17.36 28.71,31.09 42.53,47.77l0 -273.68c0,-23.82 17.02,-40.84 40.84,-40.84l483.27 0c23.82,0 40.83,17.02 40.83,40.84l0 248.72 90.02 -82.85c22.96,-20.8 45.85,-41.29 66.86,-61.16 25.66,-24.29 45.92,-39.74 65.15,-62.02 -7.16,-16.23 -33.34,-46.12 -43,-59.55 -92.12,-128.05 -165.64,-278.57 -201.49,-434.37 -4.98,-21.68 -9.75,-74.1 -17.93,-88.93 -15.76,-11.19 -326.83,-75.76 -375.34,-86.38 -42.99,-9.42 -414.03,-88.03 -421.82,-98.19 -13.75,-17.96 1.54,-29.58 22.3,-30.2 34.27,-0.99 18.54,-8.24 43.28,-10.72l625.16 -17.72c160.92,-3.31 88.37,19.5 146.94,-143.06 15.71,-43.58 33.75,-81.47 54.09,-119.73 43.42,-81.67 98.21,-139.09 153.1,-197.88 -4.51,-10.14 -463,-371.93 -510.03,-409.4l-254.86 -203.65c-9.22,-7.71 -23.47,-20.91 -31.42,-25.76 -14.21,-8.64 -24.73,0.74 -40.2,7.27l-156.85 74.05c-26.56,13.45 -51.48,30.74 -74.79,40.68 60.47,-86.5 172.07,-185.28 178.01,-194.08 -5.84,-8.16 -8.61,-9.16 -18.97,-17.43 -67.88,-54.06 -54.51,-70.73 -145.16,3.37 -42.09,34.4 -150.07,134.08 -183.09,175.94 -7.08,8.97 -8.09,10.66 -16.5,19.12 -54.99,55.44 -154.12,202.79 -194.86,270.93 -53.7,89.84 -140.27,293.38 -178.04,394.11 -56.18,149.81 -83.22,321.97 -73.38,499.79 11.47,206.99 69.55,416.69 154.33,607.59 48.37,13.93 93.92,31.44 136.43,52.24z"/>
   <path class="fil1" d="M4394.63 2650.77c44.62,2.82 82.68,9.92 123.98,18.49 92.46,19.17 180.04,55.81 261.01,101.5 73.51,41.47 25.37,40.16 160.31,-60.69 94.1,-70.33 238.79,-190.42 334.1,-266.59 37.84,-30.24 72.64,-58.3 109.49,-89.63 37.35,-31.76 70.49,-52.77 111.43,-87.57 50.94,-43.3 106.45,-83.79 164.74,-133.84l58.58 -44.54c73.25,-60.46 149.06,-117.13 221.44,-176.55 142.48,-116.99 308.26,-241.92 445.79,-357.46 67.66,-56.85 163.51,-125.43 223.15,-178.66 38.78,-34.61 169.92,-135.31 221.56,-176.52l780.08 -623.94c35.9,-28.75 75.24,-58.99 110.72,-88.36 178.88,-148.05 373.55,-298.61 556.68,-445.56 37.09,-29.76 76.82,-62.66 110.93,-89.88l-247.96 165.98c-199.87,135.59 -425.63,291.97 -625.87,422.8 -39.51,25.82 -86.19,56.87 -124.85,84.86 -77.53,56.15 -167.48,112 -248.57,167.44 -331.78,226.85 -666.87,446.44 -999.21,674.78 -247.57,170.09 -501.1,336.13 -751.17,507.09l-623.6 421.34c-21.79,14.5 -41.7,28.01 -61.24,42.02 -61.73,44.26 -300.89,196.78 -311.52,213.49z"/>
   <path class="fil0" d="M3214.9 3810.38c0,-90.67 14.73,-253.65 -10.44,-324.86 -28.72,-81.25 -112.11,-146.17 -189.15,-146.17l-510.95 0c-83.27,0 -163.3,67.5 -191.03,144.29 -22.04,61.04 -8.57,251.17 -8.57,334.72 -14.24,-10.43 -62.66,-105.9 -136.52,-182.81 -186.25,-193.94 -442.99,-296.2 -733.7,-296.2l-798.37 0c-96.28,0 -199.59,96.92 -199.59,191.61l0 2347.19c0,96.14 103.13,191.61 199.59,191.61l798.37 0c315.52,0 670.35,-146.6 834.99,-426.44 15.59,-26.49 12.98,-36.27 35.23,-52.58 0,80.15 -11.47,271.97 6.47,328.85 22.78,72.26 101.81,150.17 193.13,150.17l510.95 0c44.32,0 94.08,-29.06 120.11,-47.55 29.52,-20.96 53.2,-60.76 68.58,-99.07 26.11,-65.08 10.9,-238.03 10.9,-324.42 22.27,16.31 31.77,52.31 62.14,97.54 24.1,35.91 47.32,60.58 75.45,92.2 46.7,52.52 61.37,72.14 129.06,118.44 232.77,159.2 388.95,186.81 691.4,186.81 209.91,0 401.21,-73.09 558.8,-183.67l135.78 -111.72c-5.05,60.67 -33.02,143.9 68.7,226.69l45.43 26.42c77.15,34.93 494.66,18.33 604.4,18.33 81.59,0 148.05,-60.44 178.42,-116.97 16.66,-31 25.17,-70.31 33.77,-109.94 8.91,-41.06 24.37,-88.97 27.32,-124.37l327.33 0c0.92,41.04 40.51,204.87 58.22,237.17 33.21,60.58 98.86,114.11 189.27,114.11l518.94 0c48.24,0 98.47,-28.3 127.74,-47.91 39.02,10.42 60.94,47.91 143.71,47.91l487.01 0c75.61,0 114.74,-30.62 153.85,-69.69 41.87,-41.81 61.71,-89.54 61.71,-169.82l0 -654.66c173.55,0 326.8,-4.42 468.13,-50.81 240.82,-79.06 404.02,-225.88 511.3,-454.72 82.06,-175.07 98.3,-403.27 61.94,-607.7 -29.83,-167.79 -109.65,-338.87 -225.03,-453.57 -20.53,-20.42 -34.92,-35.95 -55.73,-56.05 -20.57,-19.86 -38.72,-31.19 -62.55,-49.22 -128.79,-97.44 -333.39,-164.17 -514.44,-164.17l-886.19 0c-133.52,0 -215.56,106.26 -215.56,255.47l0 399.19 -343.29 0 -102.21 -392.79c-28.7,-116.77 -63.91,-261.87 -241.1,-261.87l-598.77 0c-74.26,0 -133.93,36.53 -169.83,77.66 -49.16,56.32 -121.13,376.67 -146.23,476.49 -9.73,38.63 -18.7,63.84 -27.24,100.51l-279.43 0c-94.03,-403.62 -475.62,-678.61 -894.17,-678.61 -258.81,0 -428.82,17.5 -640.26,150.11 -89.26,55.99 -150.23,111.59 -215.85,191.33 -47.18,57.33 -88.7,138.3 -101.94,153.54zm-2566.05 2085.27l758.9 0c486.66,0 809.96,-282.45 809.96,-707.87l0 -966.48c0,-425.41 -323.3,-707.87 -809.96,-707.87l-758.9 0c-23.82,0 -40.84,17.02 -40.84,40.84l0 2300.54c0,23.82 17.02,40.84 40.84,40.84zm524.1 -500.26l0 -1381.7c0,-10.2 6.8,-17 17,-17l221.23 0c146.32,0 241.61,115.69 241.61,289.26l0 833.78c-6.82,176.96 -102.08,289.28 -238.22,289.28l-224.62 3.4c-10.2,0 -17,-6.83 -17,-17.02zm1344.24 500.26l483.27 0c23.82,0 40.83,-17.02 40.83,-40.84l0 -2300.54c0,-23.82 -17.01,-40.84 -40.83,-40.84l-483.27 0c-23.82,0 -40.84,17.02 -40.84,40.84l0 2300.54c0,23.82 17.02,40.84 40.84,40.84zm1589.28 27.22c490.06,0 813.36,-299.48 813.36,-755.51l0 -23.81c0,-13.6 -17.02,-27.22 -40.84,-27.22l-483.24 -20.42c-27.22,0 -40.84,10.2 -40.84,37.44l0 47.63c0,153.16 -98.69,258.65 -248.44,258.65 -149.73,0 -248.42,-105.49 -248.42,-258.65l0 -952.89c0,-153.12 98.69,-258.63 248.42,-258.63 149.75,0 248.44,105.51 248.44,258.63l0 47.66c0,27.22 13.62,37.42 40.84,37.42l483.24 -20.42c23.82,0 40.84,-20.42 40.84,-44.23l0 -13.6c0,-456.03 -323.3,-748.71 -813.36,-748.71 -490.05,0 -813.36,302.88 -813.36,769.13l0 891.61c0,469.64 323.31,775.92 813.36,775.92zm2297.15 -27.22l507.06 0c27.21,0 40.83,-13.62 34.04,-44.24l-609.18 -2303.94c-6.8,-23.82 -23.82,-34.04 -47.64,-34.04l-595.55 0c-23.82,0 -40.83,10.22 -47.66,34.04l-609.15 2303.94c-6.82,30.62 6.8,44.24 34.01,44.24l500.29 0c23.82,0 37.41,-10.22 44.23,-34.04l71.46 -302.87c3.42,-10.2 6.82,-13.63 17.02,-13.63l571.73 0c10.22,0 13.62,3.43 17.02,13.63l68.06 299.47c3.4,23.82 20.41,37.44 44.26,37.44zm-612.58 -806.56l193.96 -830.36c3.42,-17.01 17.02,-17.01 20.43,0l183.78 833.78c3.4,13.6 -6.82,17 -17.02,17l-364.13 0c-10.22,0 -20.42,-6.8 -17.02,-20.42zm2263.11 -1575.66l-861.02 0c-23.81,0 -40.83,17.02 -40.83,40.84l0 2300.54c0,23.82 17.02,40.84 40.83,40.84l483.25 0c23.83,0 40.85,-17.02 40.85,-40.84l0 -840.57c0,-10.22 6.8,-17.02 17.02,-17.02l319.9 0c435.6,0 724.86,-289.28 724.86,-731.69 0,-449.2 -289.26,-752.1 -724.86,-752.1zm-95.29 1037.96l-224.61 0c-10.22,0 -17.02,-6.8 -17.02,-16.99l0 -520.71c0,-10.2 6.8,-17 17.02,-17l224.61 0c153.14,0 258.63,105.5 258.63,282.47 0,170.14 -105.49,272.23 -258.63,272.23z"/>
  </g>
 </g>
</svg>
